<?xml version="1.0" encoding="UTF-8"?>
<svg version="1.1" viewBox="0 0 2048 1816" width="1280" height="1280" xmlns="http://www.w3.org/2000/svg">
<path transform="translate(952,185)" d="m0 0 4 1 10 37 14 52 1 4 30-3 26-1h19l31 2 43 4 5-15 21-70 4-9 25 4 26 6 27 7 38 11 21 8 36 16 1 3-8 24-18 61-2 7 23 12 17 9 22 14 20 14 17 12 5 4 4-1 45-45 8-7 15-15 5 1 12 11 11 10 11 9 18 18 8 7 12 13 7 7 5 7v2l4 2 18 22 9 10 8 11-2 4-8 7-14 14-8 7-14 13-8 7-16 16 1 5 15 23 13 21 11 19 11 23 8 17 1 6 43-10 50-12 5 1 6 14 14 41 9 36 9 43 6 31v8l-7 3-69 18-18 5h-2l1 9 1 13 1 39-3 60-1 8 15 3 48 14 23 6 7 3 1 2-4 24-11 49-10 35-9 26-11 30-4 8-6-1-36-10-42-12-11-2-18 36-9 16-22 34-7 11-7 9 1 5 7 8 21 21 8 7 11 11v2h2l7 8 8 8 1 3-8 11-12 14-11 12-12 12-7 8-20 20-7 8-10 9-14 11-9 7-8 7-7 6h-4l-7-8-46-46-7-8-5-4-6 1-9 6-14 9-22 14-29 16-34 16-1 4 8 29 12 44 3 17-3 3-38 15-38 12-47 11-33 6-12 1-4-5-7-24-11-42-5-21h-17l-40 2h-21l-73-5-8 24-9 30-9 32-3 6-10-1-35-7-31-8-29-9-40-15-23-9-4-4 2-10 10-32 12-42 1-2v-7l-23-11-19-11-26-16-25-17-13-10-8 4-2 4-14 14-8 7-18 18h-2v2l-8 7-7 6-3 3-4-2-11-8-13-11-15-14-8-7-12-12-8-7-9-10-8-10-10-12-7-9-11-13-9-12 1-4 13-11 52-52 1-3-5-9-16-24-10-17-12-22-8-15-10-24v-2l-64 16-24 5h-8l-7-16-12-36-10-35-6-26-4-24-2-15-1-20 1-2 28-8 59-15 2-1 1-88 1-23 2-12v-5l-9-3-55-15-24-8-3-2 1-19 4-23 9-39 7-24 9-27 9-22 9-18 8 1 20 5 57 16 9 3 2-6 8-16 10-19 17-28 13-21 7-10 5-8-2-4-7-8-54-54v-2h-2l-1-4 6-8 9-11 11-13 7-8 23-23 7-8 13-13 8-7 8-8 12-9 11-9 8-6 3-3 4 1 13 12 27 27 7 8 16 16 5 3 5-2 15-10 17-11 21-13 17-9 19-10 15-7 1-2-8-33-13-48-1-4v-8l10-5 27-11 31-10 43-12 17-4 14-2 19-2zm70 227-31 3-35 6-36 9-36 12-21 9-33 16-19 11-21 13-18 13-14 11-26 22-34 34-11 14-7 9-12 17-15 22-13 22-11 21-15 33-9 25-8 28-8 36-4 26-2 20v68l4 37 5 28 7 26 2 4 12 5 23 7 22 3h26l17-4h12l22 2h25l14-9 5-1 10 6 15 6 14 3 32 4h41l30-5 25-9 16 3 8 1 28-1 33-3 4-1h43l23 3 28 4h13l26-5h22l41 7 21 4 10 1h37l18-4 19-7 6-1h17l28 5h11l13-2h16l59 4h10l4-7 7-25 6-29 4-28 2-21 1-22v-21l-2-33-3-26-6-32-7-28-12-36-12-28-10-21-12-21-12-20-13-19-11-14-9-11-11-13-11-12-23-23-11-9-14-12-18-13-21-14-20-12-23-12-17-8-26-11-36-12-36-9-35-6-32-3z" fill="#0B0E0F"/>
<path transform="translate(428,1321)" d="m0 0 4 1 11 12 10 13 7 10 7 8 11 12 17 17 7 8 10 10 8 7 10 9 7 7 13 10 14 12 14 11 11 8 19 14 45 30 44 24 16 8 27 13 33 13 22 8 29 10 27 8 53 12 29 5 46 5h110l13-1 15-2 33-4 42-8 38-9 38-12 37-13 22-9 32-15 23-11 14-8 17-9 14-7 42-28 16-11 9-7 12-9 13-10 11-9 16-12 9-9 10-8 13-11 14-14 7-8 10-12 8-10 11-12 8-6 6 1 9 5 11 9 8 8v2l3 1v2l4 2 14 12 19 19 9 7 10 9 15 15 11 8 11 10 6 7 6 4 2 8 21 8 27 8 28 6 14 1 5 1h81l10-1 11-3 17-1 16-3 12-3 22-4h4v6l-15 8-14 8-9 5-16 8-20 11-17 10-10 8-5 7 8 7 13 8 21 11 23 10 38 19 3 1v4l-16 3-14 2-30 4-44 5-13 1h-42l-38-4-34-4-5-2-14-3-27-9-6-4-12-12-9-11-20-20-7-8-10-10-5 1-9 7-12 11-11 10-11 8-9 8-20 16-36 27-18 13-24 16-26 17-24 14-22 12-44 22-23 11-23 10-16 6-27 11-22 8-30 9-28 8-34 8-26 5-44 6-49 6-30 3-18 1h-58l-38-2-30-3-48-6-42-7-43-11-23-7-47-14-27-11-22-8-34-14-33-16-28-13-22-11-40-24-15-10-22-14-8-6-14-10-18-13-13-10-16-12-13-11-13-10-10-8-10-10-10-8-11-9-8-7-4 1-10 9-7 8-6 5-9 11-12 14-14 15-8 8-12 5-37 10-24 4-15 1h-93l-29-2-13-2-19-2-28-5-6-2 3-3 29-15 38-19 19-11 15-9-1-4-11-8-10-7-12-9-26-15-21-11-20-12-7-4v-3l9 1 39 7 10 2 32 4 15 1h58l37-5 7-2 12-2 31-8 20-6 1-9v-6l7-8 11-8 11-10 10-8 11-9 10-8 12-10 9-7 9-8 9-7 11-10 9-7 3-3h2v-2l11-9 7-7 11-8z" fill="#FAE12C"/>
<path transform="translate(600 1e3)" d="m0 0 1 2 9 3 26 8 22 3h26l17-4h12l22 2h25l14-9 5-1 10 6 15 6 14 3 32 4h41l30-5 25-9 16 3 8 1 28-1 33-3 4-1h43l23 3 28 4h13l26-5h22l41 7 21 4 10 1h37l18-4 19-7 6-1h17l28 5h11l13-2h16l59 4h11l-3 12-10 26-7 15-11 23-4 8-10 2v3l-8 4-17 5-14 2h-15l-16-2-9-2 16 4 18 1 3 2 2-1 12-2 5-2 23-6h3l-1 5-7 9-2 2v5l-6 8-7 11-13 17-10 13-12 13-7 8-26 26-8 7-10 9-16 12-10 8-15 10-14 9-16 8-20 11-19 8-20 8-28 9-32 8-31 6-23 3-18 2-22 1h-32l-31-2-27-4-37-8-14-4-19-6-24-9-25-11-16-8-21-11-16-10-19-13-18-13-11-9-14-12-16-15-17-17-18-22-10-12-13-18-14-21-9-15-6-11-11-23-12-28-10-29-2-8z" fill="#75C3EE"/>
<path transform="translate(271,1472)" d="m0 0h1l1 8 3 58 2 37v22l-7 3-45 11-31 5-27 3h-69l-29-2-13-2-19-2-28-5-6-2 3-3 29-15 38-19 19-11 15-9-1-4-11-8-10-7-12-9-15-9-4-4-12-7-7-5-9-5-11-7-1-2 37 6 32 4 36 2h37l33-3 31-6 40-10z" fill="#FAE12C"/>
<path transform="translate(1778,1476)" d="m0 0 11 3 34 9 32 6 23 3 16 1h55l32-3 28-4 21-4h5l-4 4-16 9-14 10-6 3-3 3-18 10-17 10-5 4-6 3-7 4-6 4-1 2 6 2 11 6 16 8 23 12 19 10 26 13 5 2v3l-26 5-33 5-29 3-31 1h-26l-30-2-27-4-34-7-29-8-1-1v-13l5-100z" fill="#FAE12B"/>
<path transform="translate(1e3 760)" d="m0 0h26l13 4 9 5 5-1 10-5 12-3h20l21 5 21 6 12 2 31 1 5 7v2l4 1h11l2 4 8 68 10 86 3 25v6l-1 1h-91l-57-1-96-1-90-2-10-1-1-4 4-37 6-50 7-59 3-28 2-3h7l5-3 7-14h29l24-4 23-6zm-2 4-29 7-22 3h-26l-2 2-8 61-9 90-2 13v5l4 3 8 1h11l14-2 16-5 22-7 18-3 14 1 16 4 16 8 7 2v-174l-8-5-12-4zm76 0-15 5-6 4-1 1-1 31-2 127v16l2 1 14-8 16-6h31l21 6 19 7 11 3 11 1h15l4-1v-14l-3-33-2-30-6-67-3-26-1-4-6-1-13 1-20-2-22-5-25-6z" fill="#535048"/>
<path transform="translate(1037,538)" d="m0 0 4 2 13 5 4 10 6 5 8 6 11 11 7 12 5 5 4 7 6 10 5 6 5 11 5 13 3 6 1 5 1 15v15l-2 14-3 9-9 11-17 13-14 9-14 3h-33l-6-5-9-3-1 2v-2l-5 1-6-4-13-13-9-14-2-6v-20l5-25 9-17 7-10 6-11 6-8 7-12 5-13 4-10 5-26z" fill="#FBE22C"/>
<path transform="translate(1452,1114)" d="m0 0h3l-1 5-7 9-2 2v5l-6 8-7 11-13 17-10 13-12 13-7 8-26 26-8 7-10 9-2-1 11-11-21 7-5 1h-28l-21-4-4-2-9 1-17 9-21 10-27 9-17 3h-36l-21-3h-2l15 7 19 6 20 3h9l6-1-5 5-13 8-16 7-16 5-18 3h-39l-22-5-20-6-23-11-16-11-5-2-11 4-14 3-10 1h-10l-13-2v-1h29l15-3 12-4h2v-2l10 2 15 1h31l28-4 26-7h2l-3-3-18-9 3-1 22 10 13 4 18 3h37l20-4 25-9 19-9 7-4h2v-2l2-1-1-1-19-2v-2l-11-1-21-7-16-9-4-1-9 4-6 1h-8l-13-4-6-2-6-1 2-4 6 1 5 3v2l10 2h12l10-3 5-4h3l1 2h7l21-4 16-7 7-5 2-3 5 1 15 8 15 5 8 2h28l15-3 6-3 4 1-14 10-21 10-20 7h-3v2l-3 3 7 1 15 2h23l15-4 21-8 10-9 13-13 2-3h2l2-4 11-13 8-10 20-26 8-12 3-5-9-1-15-3-7 1-18 8-20 6-23 4-1 3 9 1v4l-9 3-5 4-17 5-21 3h-20l-19-3-16-4-11-2-18-8-1-3-21 5h-20l-9-2v-2h-8l-10-4 2-2h6l7 3 12 2h20l16-4 1-1h14l5 1h25l15-1 10-3 3-2 3-1-8-3-25-5-14-7-6-4v-2h-2v-2l5 1 10 6 7 3 5 1h25l12-5 4 1-4 4-5 2-8 1 1 3 17 5 7 2 12 1h23l21-3 20-6 9-4h2v-2h-11l-12-3-7-2v-2l18 4 18 1 3 2 2-1 12-2 5-2z" fill="#4EA1D0"/>
<path transform="translate(428,1321)" d="m0 0 4 1 11 12 10 13 7 10 7 8 11 12 17 17 7 8 10 10 8 7 10 9 7 7 13 10 14 12 14 11 11 8 19 14 45 30 44 24 16 8 27 13 33 13 22 8 29 10 27 8 53 12 29 5 46 5h110l13-1 15-2 33-4 42-8 38-9 38-12 37-13 22-9 32-15 23-11 14-8 17-9 14-7 42-28 16-11 9-7 12-9 13-10 11-9 16-12 9-9 10-8 5-3-1 3-8 7-7 7-11 9-10 9-11 9-13 10-14 11-10 7-23 16-15 10-14 9-21 12-28 15-23 12-36 16-20 8-25 9-33 11-34 9-43 9-36 6-31 4-33 2h-61l-43-3-49-7-42-8-28-7-30-9-36-12-17-6-26-11-16-8-23-10-22-12-14-8-18-11-10-7-11-7-14-9-16-12-11-8-19-14-13-11-12-11-11-9-12-12-8-7-40-40-16-20-18-22-5-5-13 11-11 9-13 11-10 8-13 11-9 7-14 12-11 9-16 13-13 11-10 8-8 7-8 6-1 5 15 14 4 5 4 3v2l4 2 39 39 11 9 12 12 8 7 3 4-4-2-17-14-8-7-4 1-10 9-7 8-6 5-9 11-12 14-14 15-8 8-12 5-37 10-24 4-15 1h-24v-1l41-5 25-5 41-10 2-1v-22l-4-74-1-21-1-7-37 10-27 6-17 3-33 3h-37l-36-2-32-4-31-5h-3l9 6 10 6 16 10 6 4-2 1-23-12-27-16-7-4v-3l9 1 39 7 10 2 32 4 15 1h58l37-5 7-2 12-2 31-8 20-6 1-9v-6l7-8 11-8 11-10 10-8 11-9 10-8 12-10 9-7 9-8 9-7 11-10 9-7 3-3h2v-2l11-9 7-7 11-8z" fill="#776D26"/>
<path transform="translate(600 1e3)" d="m0 0 1 2h2l6 23 11 30 11 24 8 16 5 2 22 3h17l11-2 4-4-18-2-20-7-9-6v-2l7-1 12 1h10l14-1 19-5 17-8 5-2 11 5 15 2h20l5-1 7 3h16l12-4 5-3 4 1 14 9 13 6 16 4h16l16-5 12-7 6-5 2-4h2l1 4-10 9-16 9-25 7-10 6-1 3 18 1h33l17-2 9-2h8l2-4 3 3 16 2h18l18-3 12-4 5-3 5 1v2l-7 2-1 3-3 2-18 5-8 1h-20l-13-1-6-1-12 6-10 6-16 8-13 5-23 6-19 2h-28l-19-3-14-4-6-3v-2l16-3 11-3v-2l7-3-2-1-8 1h-38l-27-4-24-7-8-3h-6l-14 5-14 3-11 1-29-1-1 2 7 12 10 15 8 11 16 21 11 13 9 11 27 27 8 7 9 8 10 8 11 9 9 6 3 4-4-2-17-12-11-9-14-12-16-15-17-17-18-22-10-12-13-18-14-21-9-15-6-11-11-23-12-28-10-29-2-8z" fill="#4E99C3"/>
<path transform="translate(1642,1344)" d="m0 0 6 2 13 10 9 9v2l3 1v2l4 2 14 12 19 19 9 7 10 9 15 15 11 8 11 10 6 7 6 4 2 8 21 8 27 8 28 6 14 1 5 1h81l10-1 11-3 17-1 16-3 12-3 22-4h4v6l-15 8-14 8-9 5-14 7-2-1 10-6 16-11 12-7 1-1-36 6-35 4-13 1h-55l-26-2-29-5-24-5-29-8-8-3v12l-5 100v13l29 8 34 7 27 4 30 2h26l31-1 36-4 43-7 9-1v-3l-9-3-24-12-40-21-19-9-4-3-10-5 1-3 6-4 7-4 5-2-6 7-3 4 8 7 13 8 21 11 23 10 38 19 3 1v4l-16 3-14 2-30 4-44 5-13 1h-42l-38-4-34-4-5-2-14-3-27-9-6-4-12-12-9-11-20-20-7-8-10-10-5 1-9 7-12 11-11 10-11 8-9 8-20 16-36 27-18 13-24 16-26 17-24 14-22 12-44 22-23 11-23 10-16 6-27 11-22 8-30 9-28 8-34 8-26 5-44 6h-8v-1l50-8 30-6 38-10 25-7 25-8 12-4 37-14 27-11 25-12 26-12 14-7 22-12 26-14 22-14 19-12 15-10 10-7 12-8 14-11 13-10 16-12 10-8 11-9 14-12 11-10 8-7 12-10 14-14 8-7 40-40 7-8 4-3-1-4-24-22-10-9-11-10-8-7-15-13-8-7-11-10-8-7-11-10-8-7-13-12z" fill="#3E3422"/>
<path transform="translate(1144,1209)" d="m0 0m-1 1m-1 1 10 2 9 4 5 1h8l9-2 6-3 4 1 16 9 21 7 11 2v2l19 1 2 2-3 1v2l-23 12-24 9-19 5-7 1h-37l-23-4-19-8-11-5-13-1-11-2v-2l-8-1-14-6-11-8-5-6 4 2 10 8 13 6 11 3 8 1 1-2h7l3 1 15-6 11-6 12-9 10-10z" fill="#73C2ED"/>
<path transform="translate(428,1321)" d="m0 0 4 1 11 12 10 13 7 10 7 8 11 12 17 17 7 8 10 10 8 7 10 9 7 7 13 10 14 12 14 11 11 8 19 14 45 30 44 24 16 8 27 13 33 13 22 8 29 10 27 8 53 12 29 5 46 5h110l13-1 15-2 33-4 42-8 38-9 38-12 37-13 22-9 32-15 23-11 14-8 17-9 14-7 42-28 16-11 9-7 12-9 13-10 11-9 16-12 9-9 10-8 5-3-1 3-8 7-7 7-11 9-10 9-11 9-13 10-14 11-10 7-23 16-15 10-14 9-21 12-28 15-23 12-36 16-20 8-25 9-33 11-34 9-43 9-36 6-31 4-33 2h-61l-43-3-49-7-42-8-28-7-30-9-36-12-17-6-26-11-16-8-23-10-22-12-14-8-18-11-10-7-11-7-14-9-16-12-11-8-19-14-13-11-12-11-11-9-12-12-8-7-40-40-16-20-18-22-5-5-13 11-11 9-13 11-10 8-13 11-9 7-14 12-11 9-16 13-13 11-10 8-8 7-8 6-1 2-2 32-1 5h-1l-2-19v-18l5-6 11-8 11-10 10-8 11-9 10-8 12-10 9-7 9-8 9-7 11-10 9-7 3-3h2v-2l11-9 7-7 11-8z" fill="#35321F"/>
<path transform="translate(1062,640)" d="m0 0 4 2 4 3 3 6 3 1 10 19 4 12 4 19-1 15-5 10-7 8-4 2-1 2-10 2h-33l-9-8-4-9-1-3v-9l4-13 8-14 7-15 4-11 1-6 4 1 4 3h2l6-15z" fill="#BE3D36"/>
<path transform="translate(1e3 760)" d="m0 0h26l13 4 9 5 5-1 10-5 12-3h20l21 5 21 6 12 2 31 1 3 5h-2l-1 9h-1l-1-11-19 1-20-2-22-5-25-6h-18l-15 5-6 4-1 31-2 127h-1l-1-97v-48l1-12h-2v116l-1 50h-1v-168l-12-6-7-2h-28l-29 7-22 3h-26l-2 7-8 64-8 81-2 13v5l3 2 8 1h17l-1 2h-24l-6-2-2 4-3 7-5 3-1 3 3 1 18 1 6 2v1h-26l-10-1-1-4 4-37 6-50 7-59 3-28 2-3h7l5-3 7-14h29l24-4 23-6z" fill="#545148"/>
<path transform="translate(1797,435)" d="m0 0h7l6 7 9 15 11 21 4 13-1 9-6 10-9 7-8 3-11-1-12-7-3-1-2 6-11 23-9 10-7 1-4-5-1-2v-7l5-12 11-19 3-7v-9l-5-11-2-1-30 15h-8l-5-5-1-7 5-5 22-13 27-15 19-10zm1 22-20 10-1 5 8 15 7 9 6 4h9l7-6 1-3v-8l-9-19-5-6z" fill="#BE3F36"/>
<path transform="translate(935,7)" d="m0 0h18l12 3 8 5 5 4 7 11 4 11 2 10v17l-2 12-5 9-9 10-9 6-5 2-13 2h-15l-14-3-11-8-8-10-6-16-1-5v-22l4-13 6-9 9-9 10-5zm1 14-11 4-5 4-5 8-3 14 1 15 4 12 6 8 6 5 7 3h13l9-4 8-7 4-8 1-4v-16l-3-15-6-10-8-7-5-2z" fill="#BE3E36"/>
<path transform="translate(1672,305)" d="m0 0 6 1 2 2 1 7-1 8 9 1 7 4 6 7 4 10v9l16 6 7 6 4 8 1 3v10l-4 6-9 10-13 11-13 10-6 4h-6l-5-5-1-5 6-9 11-9 14-12 6-7 1-6-3-6-2-2h-11l-11 6-16 13-11 8-4 1-6-4-3-5 1-5 8-8 8-7 11-10 9-7 2-7-3-6-4-3-8-1-7 3-9 7-11 9-11 8-5 2-5-1-4-6 1-7 7-8 10-8 10-9 12-9 9-7z" fill="#BF3F36"/>
<path transform="translate(887,1199)" d="m0 0 5 2 6 3 5 1h11v-2l4 1 6 2 15-2 11-3 7 5 10 4 10 1 23 1 1 3-12 5h-3v2l-9 1v3l3 2 14 1 15-2-4 3-11 2-12-1-15-4-8-3-8 1-14 4-17 3h-11l-15-1 1 4 15 2-2 4-11 3-3 1h-34l-16-4-20-9-11-7-9-6-15-1v-1l9-1h10l14 3 19 2h12l8-1-5-5-19-7-6-4 2-1 10 5h14l17-2 11-6z" fill="#71BEE9"/>
<path transform="translate(600 1e3)" d="m0 0 1 2h2l6 23 11 30 11 24 8 16 5 2 22 3h17l11-2 4-4-18-2-20-7-9-6v-2l7-1 12 1h10l14-1 19-5 17-8 5-2 11 5 15 2h20l5-1 7 3h16l12-4 5-3 4 1 14 9 13 6 10 3-4 1-7 1-12-5-16-10-7 3-11 4-4 1h-9l-10-1-5 3-19 9-13 4-13 3v2l13 4 17 4 13 2h31l15-2 6-1v2l-18 3h-38l9 1h26l17-2v2l-10 2h-38l-27-4-24-7-8-3h-6l-14 5-14 3-11 1-29-1-1 2 7 12 10 15 8 11 16 21 11 13 9 11 27 27 8 7 9 8 10 8 11 9 9 6 3 4-4-2-17-12-11-9-14-12-16-15-17-17-18-22-10-12-13-18-14-21-9-15-6-11-11-23-12-28-10-29-2-8z" fill="#4EA1D1"/>
<path transform="translate(1170,1092)" d="m0 0 1 3-12 12-9 3-2 3h-2v2l18-2 15-3 8-2 8 1 17-2 12-4 4-3h2v3l-7 5-11 4-24 2-5 2-10 7-4 2-4 4-15 7-6 2-14 1h-15l-13-2-6-3-1-4 1-2h-18l-16-3h-8l-15 5-5 1h-18l-3-3 5-5h9l5 1 2-2-11-3-1-3h-2v-3l14-1 15-4 9-6 2-3 10 2h35l7-2 3-3 4 2 5 3 11 3 8 1 16-4z" fill="#4E9DCB"/>
<path transform="translate(1115,1263)" d="m0 0 6 1 12 8 16 6 21 5 13 2-2 4-22 10-13 4-18 3-9 1h-17l-18-2-19-4-22-7-16-8-10-6-2-2v-3h47l22-3 19-5z" fill="#4EA2D2"/>
<path transform="translate(299,422)" d="m0 0 6 1 22 12 21 12 14 9 7 7 4 8 1 3v15l-4 13-9 14-7 7-10 5-5 1h-11l-11-4-16-8-23-12-13-8-5-5 1-8 4-5 8 1 12 6 16 9 27 14 3 1h9l6-3 7-8 3-7 1-9-3-9-5-4-17-10-22-12-12-7-6-7-1-3 4-6z" fill="#BE3E36"/>
<path transform="translate(1134,4)" d="m0 0 38 5 16 5 5 4 5 8 2 7v14l-7 14-6 5-10 3h-25l-12-1-4 24-4 11-4 3h-7l-4-5-2-5 1-12 9-64 4-13zm13 17-3 5-2 16v9l11 3h15l6-3 4-5 1-4v-9l-3-6-8-3-14-3z" fill="#BF4036"/>
<path transform="translate(1765,1479)" d="m0 0 5 1 2 1v24l-1 14-1 38-2 27-2 9-7-1-1-3-3-2-4-7-8-7-8-10v-2h-2l-3-3-3-1v-3l-4-1v-3l-4-1v-3l-4-1v-4l-4-2-2-3 1-5 14-11 16-16 1-4 6-3 12-11z" fill="#776D26"/>
<path transform="translate(223,853)" d="m0 0h33l13 1 2 2v11l-7 3 3 9 4 8v17l-5 10-7 7-16 5h-20l-12-4-6-4-8-14v-16l4-11 3-7h-25l-9-3-1-2v-6l3-4 8-1zm5 18-9 3-8 7-1 3v11l3 6 5 4 14 3 13-1 6-3 5-6 2-8-1-7-4-6-6-4-7-2z" fill="#BF4036"/>
<path transform="translate(1371,1635)" d="m0 0h8l2 2 1 4 1 13v39l-5 5h-6l-6-4-21-21-6-4 3 6v7l-7 5-15 6-12 2 2 6 3 4 3 1h8l7-4 9-12 5 1 2 3-1 8-9 10-8 5-4 1h-15l-9-4-7-8-4-9-1-4v-14l4-9 5-6 9-4 5-1h12l9 3-1-5 6-7 5 1 27 27-2-32v-8z" fill="#291E12"/>
<path transform="translate(1178,1672)" d="m0 0 10 1 7 3 4 5 3 7v12l-3 5-8 7-3 3 5 1 10 10 7 11 2 7-6 4-6-1-6-4-9-11-7-8-6-3-4-1h-7v8l2 16v7l-3 3-9 1-2-1-3-13-8-46v-14l4-4 16-3z" fill="#291D11"/>
<path transform="translate(193,1032)" d="m0 0 5 1 4 10 7 32v3l13-1 12-2-5-32v-10h12l3 9 5 26v3l10-2 15-2 5-1h12l5 5v7l-2 4-8 3-31 6-35 7-6 1h-14l-4-6-5-22-4-22v-14l2-2z" fill="#BE3F36"/>
<path transform="translate(1096,1680)" d="m0 0h9l2 7 2 33 1 37-2 2h-10l-2-6-4 2-6 5-5 1h-7l-8-3-7-6-4-8-2-7v-13l2-9 4-6 5-4 8-3h8l9 2 2 4h2v-26z" fill="#2A1F12"/>
<path transform="translate(1535,190)" d="m0 0h7l13 4 8 6 8 9 4 9v13l-4 10-6 7-9-1-21-13-10-9-5-1-3 5-1 4v7l4 7 6 4 11 3 16 2 2 1-1 5-5 5-6 2-12-1-12-5-6-4-8-8-5-11-1-4v-8l3-11 5-10 6-7 11-7 5-2zm2 16-6 3-4 5 5 4 11 8 9 5 5-3 2-7-2-7-5-5-5-3z" fill="#BF4236"/>
<path transform="translate(1233,51)" d="m0 0h13l11 3 8 4 8 9 4 10 1 7-2 10-3 4-5 1-12-1-19-5-9-2h-4l-1 3v7l3 6 10 6 6 2 7-1 10-6 7 1 4 3-1 5-8 7-13 4-13-1-14-5-9-7-6-9-2-8v-12l3-12 6-11 7-7 9-4zm7 13-7 3-4 7v6l16 4 7 2h6l2-2v-8l-3-5-6-5-5-2z" fill="#BF4237"/>
<path transform="translate(1425,121)" d="m0 0 12 1 12 5 6 4 7 8 5 12v14l-5 13-7 9-8 7-10 4h-16l-11-4-11-8-6-10-3-9v-10l4-13 9-13 8-6 7-3zm4 15-8 4-7 7-5 10-1 3v10l4 8 5 4 3 1h12l6-4 6-7 4-10 1-4v-8l-4-7-7-6z" fill="#BF4136"/>
<path transform="translate(1806,546)" d="m0 0h9l10 4 8 6 6 8 4 8 1 5v11l-3 11-7 9-6 5-4 2-8-1-5-4-8-19-7-20-6 1-5 5-3 7v8l4 8 8 6 8 4 2 3v6l-5 3-11-2-8-6-7-9-4-9-2-10v-9l4-10 4-6 9-8 13-5zm5 17-5 3 1 6 9 23 4 1 8-7 2-6v-7l-3-7-7-5z" fill="#C04236"/>
<path transform="translate(244,615)" d="m0 0h9l14 2 15 4 10 3 14 1 4 2-1 9-5 4-5 3v8l1 5v10l-3 10-4 6-6 5-4 2h-13l-6-4-5-8-1-3-1-19 1-9v-12l-2-1h-9l-4 4-2 9v10l6 10 1 6-3 3h-8l-5-3-5-8-1-3v-9l4-17 6-12zm27 21-2 2-1 26 3 6 3 2h7l5-3 3-5v-13l-4-8-6-5z" fill="#BF3F36"/>
<path transform="translate(819,57)" d="m0 0h9l5 3v22l-4 57-3 16-3 6-9 6-12 3h-7l-5-3 3-7 14-6 2-5v-11l-5-9-12-14-8-10-12-14-4-8-1-5 2-5 4-2 7 1 5 5 12 16 10 13 6 9h1l3-49z" fill="#BF4137"/>
<path transform="translate(1238,1115)" d="m0 0 5 1 10 6 7 3 5 1h25l12-5 4 1-4 4-5 2-8 1 1 3 21 8 18 2v1h-15l7 4 17 4 20 1v2l-7 3-9 5-14 4-21 3h-20l-19-3-16-4-11-2-18-8-1-3-21 5h-20l-9-2v-2h-8l-10-4 2-2h6l7 3 12 2h20l16-4 1-1h14l5 1h25l15-1 10-3 3-2 3-1-8-3-25-5-14-7-6-4v-2h-2z" fill="#4EA2D2"/>
<path transform="translate(525,212)" d="m0 0h11l9 3 8 7 4 7-1 4-7 8-13 11-11 9-2 2 1 5 5 3 3 1h9l7-3 3-1 2-4 4-10 1-9 5-5 4 1 4 5 1 9-4 11-7 9-9 7-11 6h-13l-11-3-8-6-8-8-6-12-2-7v-9l5-13 8-9 9-6zm-1 14-8 3-7 8-1 7 3 9 5 2 10-8 11-9 2-3-1-5-4-3-3-1z" fill="#BF4036"/>
<path transform="translate(1844,708)" d="m0 0h13l13 4 9 6 6 10 3 10v17l-4 9-6 8-6 5-11 4-9 2h-11l-11-4-8-7-6-9-3-8-1-7v-8l2-10 6-10 9-6 11-5zm1 18-10 4-6 5-2 5v14l3 5 8 5 3 1h13l11-4 5-4 4-8v-11l-4-6-5-4-6-2z" fill="#BF4136"/>
<path transform="translate(1829,1036)" d="m0 0h10l11 2 12 6 7 6 4 8 2 12-2 15-5 10-9 8-12 5h-10l-8-2-1-2v-17l3-14 4-12v-5l-1-1h-12l-6 4-4 9v12l6 12v5l-4 3-7-1-4-3-4-11-1-12 3-14 5-10 8-8 8-4zm18 22-3 6-5 19v7l2 1 9-1 8-5 3-5 1-9-3-8-5-4z" fill="#BF4136"/>
<path transform="translate(252,942)" d="m0 0h8l9 6 6 9 3 9 1 15-2 10-7 10-9 7-11 4-5 1h-13l-13-4-9-8-6-12-1-5v-15l4-12 6-7 9-5 4-1h12l3 5 6 39 2 4 9-2 5-5 2-6v-11l-6-9-6-5-2-4v-6zm-24 19-6 3-5 6-1 2v13l3 5 8 5h8l2-1-1-9-1-6-1-16-2-2z" fill="#BF4236"/>
<path transform="translate(224,762)" d="m0 0h14l4 2 2 6v12l-1 16-2 16h10l6-4 5-8 1-10-3-10-7-11 3-5 4-1 6 3 7 8 4 12v14l-3 10-6 9-8 7-9 3-5 1h-13l-13-3-9-6-6-7-4-9-1-4v-11l4-13 7-10 10-6zm-1 17-4 2-6 9-1 9 4 8 7 4 6 1 3-5 2-21-2-5-3-2z" fill="#BF4136"/>
<path transform="translate(827,1073)" d="m0 0 9 5 10 6 10 4 13 4v4l-11 5-7 3-18 5-13 3-9 1h-31l-22-4-19-5-3-2 1-3 23-6 12-5 10-5 5-3 10 1h9l13-4z" fill="#76C4EF"/>
<path transform="translate(1602,240)" d="m0 0h7l6 5-1 7-8 10-12 13-8 11-2 5 1 6 5 6 10 2 8-3 7-6 7-8 16-16 5-1 6 3 2 3-1 7-6 9-8 8-9 11-16 17-5 5-5-1-6-6v-7l1-3-12-2-8-4-7-7-5-10v-8l6-12 11-12 7-8 10-11z" fill="#BF3F36"/>
<path transform="translate(1879,800)" d="m0 0h10l5 5 1 5-3 5-7 3-39 4-6 3-3 5v8l3 5v2l4 2 5 2h46l5 5-1 7-3 3-15 3-9 1-42 2-5-3-1-7 3-5 4-4-7-11-3-9v-9l4-10 7-6 16-4 9-1z" fill="#BF4036"/>
<path transform="translate(488,1463)" d="m0 0h6l8 6 24 22 6 6-1 4-4 4-6-1-10-8-14-13-5-1-8 9v4l8 7 14 12 2 3-1 5-4 4-4-1-14-11-7-6-4-4-4 2-9 10 2 5 11 10 8 7 2 4 4 2 1 5-6 6-4-1-11-9-15-14-8-7-4-5-1-3 7-9 13-15 9-10 7-8 9-9z" fill="#20150D"/>
<path transform="translate(379,361)" d="m0 0h8l11 6 19 14 13 10 5 5-1 6-5 6-5-1-12-7-13-10-13-8-5-2-6 1-5 5-3 6v7l4 6 8 8 11 9 13 10 2 2v6l-5 6-4 1-14-9-18-14-14-10-7-7-1-7 5-5h9v-10l4-10 8-9 8-4z" fill="#BE3F36"/>
<path transform="translate(1799,1115)" d="m0 0 9 2 3 4v5l-5 4-10 4-7 8-1 2v9l4 6h5l7-6 10-14 8-9 7-3h11l6 4 6 12v12l-3 10-6 11-8 8-2 1h-10l-3-3v-8l3-3 10-5 4-6 1-3v-7l-1-3-6-1-5 5-8 10-7 9-7 6-6 2h-10l-6-3-5-7-3-10v-13l5-12 6-9 8-7z" fill="#C04236"/>
<path transform="translate(1842,627)" d="m0 0h8l6 3 7 7 4 8 2 7v20l-4 8-3 3-4 1-5-2-2-4 1-8 4-10 1-6-3-7-5-3h-6l-1 5-2 30-2 9-4 6-9 3h-12l-6-4-6-7-6-13-1-5v-19l5-9 6-5h5l5 5-1 7-6 8v15l3 6 3 2h6l3-2 1-3 1-22 4-16 4-5z" fill="#C04436"/>
<path transform="translate(1043,1151)" d="m0 0 5 2 2 4 5 2 9 3h13l10-3 9-4 6 1 4 2h9l1-1h7l2 1h8l15-2 8 4v2l21 3h15v4l-15 4h-4v2l-6 2 8 1h22l-1 3-2 1-17 1-14-2-8-3-9 1-12 3h-16l-2 7-2 2-13 1-4 1h-19l-19-5-18-8-5-4v-2l-4-2-1-1-8-1 2-2h6l7 3 17 2 16 1 4 2h-18l-4-1h-15l16 8 12 4 12 2h23l-1-2-10-5v-2l-4-2-5-3-5-2-6-5-7-3-9-2-8-7-3-2z" fill="#4E9FCE"/>
<path transform="translate(643,131)" d="m0 0h16l5 3 2 2 1 6-4 4h-24l-6 3-3 7 2 5 9 1 11-4 11-1h13l6 4 5 8 2 9-3 9-6 8-9 7-9 4-5 1h-17l-7-4-2-5 1-7 1-1h8l8 3h10l8-4 4-6-1-8-2-1h-11l-14 3h-18l-6-3-5-8-1-3v-7l5-10 9-9 9-4z" fill="#BF4236"/>
<path transform="translate(1847,949)" d="m0 0h9l13 3 10 6 7 7 4 8 2 8v13l-4 11-7 10-9 6-8-1-4-4v-6l4-5 7-4 5-6 1-3v-9l-4-8-6-4-11-3h-11l-8 4-4 5-2 6 1 8 4 8 7 9-1 5-5 5-5-1-8-6-6-10-2-5v-16l3-11 6-10 10-7z" fill="#BF4136"/>
<path transform="translate(1414,1617)" d="m0 0h11l6 3 13 24 8 13 1 6-5 3h-6l-6-2-2 4-7 8-6 4-3 1h-7l-9-3-4-4-2-5v-9l4-6 12-11 7-6v-5l-1-1h-7l-6 3-4 5-1 7-4 4-5-1-4-5 1-8 5-9 11-7z" fill="#1E130D"/>
<path transform="translate(1024)" d="m0 0h31l1 1v9l-7 2-11 2-1 2-1 10 11 3 4 4-2 6-3 2-10 1-1 53-3 5-2 2h-8l-4-5-1-5-1-37v-9l-1-3-9-3-3-5 1-4 4-3 7-3 5-17z" fill="#BF4036"/>
<path transform="translate(959,1697)" d="m0 0 13 1 10 4 5 5 2 5v15l-1 20v11h-11l-3-5v-2l-6 2-3 2-7 1h-9l-8-3-5-6-2-9 2-7 5-5 9-3 23-3h2l-2-8-6-3h-7l-12 8h-6l-2-2 1-9 7-6 5-2z" fill="#151611"/>
<path transform="translate(1561,1525)" d="m0 0h10l8 3 6 5 3 6-1 5-7 7-13 10-4 3v4l6 3h6l6-4 4-8 3-9 2-2h5l3 4 1 6-3 10-7 8-11 8-2 1h-14l-12-6-7-8-4-9-1-4v-11l4-10 7-7 8-4z" fill="#1E120D"/>
<path transform="translate(1642,1344)" d="m0 0 6 2 13 10 9 9v2l3 1v2l4 2 14 12 19 19 9 7 10 9 15 15 11 8 11 10 6 7 6 4 2 8 21 8 27 8 28 6 14 1 5 1h81l10-1 11-3 17-1 16-3 12-3 22-4h4v6l-15 8-14 8-9 5-14 7-2-1 10-6 16-11 12-7 1-1-36 6-35 4-13 1h-55l-26-2-29-5-24-5-29-8-8-3v12l-5 100h-1v-26l-2 12-2 19-1 4-5-2 1-2h3l3-36 1-38 2-38-7-1-12 13-8 6 4-8-15 15-2-1 29-29 7-8 4-3-1-4-24-22-10-9-11-10-8-7-15-13-8-7-11-10-8-7-11-10-8-7-13-12z" fill="#565244"/>
<path transform="translate(1320,47)" d="m0 0h9l3 3v11l-3 8v5l10 6 1 5-5 5h-13l-3 11-7 21-1 10 8 3 6 2 1 7-3 4-3 1h-11l-10-5-8-7-1-6 5-21 8-24v-5l-5-4-1-4 4-4 9-1 3-9 6-11z" fill="#BF4036"/>
<path transform="translate(1249,1194)" d="m0 0 5 1 14 8 18 6 14 2h12l16-1-5 5-10 4-17 6-13 4-12 2h-23l-15-2-16-4-11-5-6-4 3-3 19-4 13-5 11-7z" fill="#4EA2D2"/>
<path transform="translate(723,64)" d="m0 0h9l4 5 5 14 13-1 5 6-2 5-8 7 1 6 8 24 4 8 5 2 9-4h6l2 3v6l-7 6-10 4-9 1-9-3-6-10-10-26-4-9-9-3-4-5 3-5 3-3-1-7-3-9v-7z" fill="#BF4236"/>
<path transform="translate(611,1585)" d="m0 0h13l10 5 8 9 3 7v7l-4 11-4 5-6-1-14-7-9-6-2-2-4-1-1 4v8l3 6 8 3h12l7 2-1 5-4 4-9 2-13-3-11-8-5-8-2-9 2-11 5-10 6-7 8-4z" fill="#271B10"/>
<path transform="translate(705,1634)" d="m0 0h13l8 3 8 7 5 8 1 4v7l-4 9-3 3-8-1-16-6-8-4-4 1v8l3 5 5 4h12l5-2 5 1 3 2-1 5-5 4-5 2h-10l-10-3-9-6-4-5-3-7-1-9 3-12 5-9 8-7z" fill="#251A0F"/>
<path transform="translate(877,1685)" d="m0 0 13 1 8 4 7 7 4 11-1 9-4 5-16-1-21-4 2 10 4 5 3 1h10l14-5 3 1v6l-3 5-7 4-4 1h-11l-10-3-6-4-6-7-3-8v-13l4-11 5-7 10-6z" fill="#2B1F12"/>
<path transform="translate(466,258)" d="m0 0 5 2 5 8 11 27 10 24 1 2v8l-5 6h-8l-20-7-29-12-12-6-3-3v-5l6-7 6 1 26 12 15 7 4 1-3-9-9-19-8-22 1-4z" fill="#BE3F36"/>
<path transform="translate(1323,1110)" d="m0 0 8 4 5 1h11l10-1 27 9 17 2v2l-14 6-21 6-17 2h-23l-17-2-13-4-7-3v-3l13-4 4-4 4-1 3-4h4v-2l5-3z" fill="#75C3EE"/>
<path transform="translate(1470,1588)" d="m0 0 9 1 5 4 7 10 8 14 5 11v6l-5 4h-6l-6-7-10-18-6-9h-6l-6 4-1 2v7l8 17 5 9 1 9-5 4h-6l-6-7-14-27-6-11 1-4 4-5 5 1h4l7-9 6-4z" fill="#1E120D"/>
<path transform="translate(831,1203)" d="m0 0 6 2 9 4 9 2v2l5 2 17 8 15 4 18 2 18-1 18-4 4-2-21-6-2-2 10 2 14 3 9 1 9 5 11 3 14 1 15-2-4 3-11 2-12-1-15-4-8-3-8 1-14 4-17 3h-11l-15-1 1 4 15 2-2 4-11 3-3 1h-34l-16-4-20-9-11-7-9-6-15-1v-1l9-1h10l14 3 19 2h12l8-1-5-5-19-7-6-4z" fill="#4EA2D2"/>
<path transform="translate(856,1110)" d="m0 0 20 1 25 2h10l2 1h7v2h5v-2h6l-4 6-11 5-29 8-19 3h-38l-19-5v-3l17-6 16-8 7-3z" fill="#75C3EE"/>
<path transform="translate(1e3 1701)" d="m0 0 7 1 2 6 10-5 9-1 9 3 5 3 3 6 1 5v12l-2 26-3 5-9-1-2-1v-39l-2-4-2-1h-10l-3 3-3 10-2 24-1 6-2 1h-8l-4-4v-18l2-31 3-5z" fill="#2A1E11"/>
<path transform="translate(755,1650)" d="m0 0h6l3 3 1 6 5-1 13 1 7 3 4 5 2 4v8l-2 9-11 27-4 4-7-1-3-2 1-9 10-30v-5l-8-3-7 1-4 5-12 26-4 5-7-1-3-2 1-9 13-37z" fill="#2C2112"/>
<path transform="translate(1496,1022)" d="m0 0 1 2-8 24-11 26-16 32-10 2v3l-8 4-17 5-14 2h-15l-16-2-12-3 1 2-11-3-8-1-5 1h-11l-9-3-4-2-3 3h-3v2l-5 2-2 3-4-1 5-5 5-2 3-4h2l1-3 5 1 10 4h8l10-3 3-2h16l12-3 12-6 7 1 6 3 13 3 18 1 14-1 3-1 6-9 8-17 14-32 7-20z" fill="#4EA1D1"/>
<path transform="translate(1361,88)" d="m0 0 8 2 5 8 10-1 9 2 7 6 3 7-2 5-5 2-7-1-10-6h-8l-2 4-7 11-5 11-7 17-5 5-7-1-5-4 1-10 7-20 5-12 10-21z" fill="#BF4036"/>
<path transform="translate(1514,135)" d="m0 0 8 1 3 4v6l-7 14-22 33-11 17-8 11-4 4-6-1-7-7 2-6 11-18 10-15 12-19 8-12 8-10z" fill="#BF3F36"/>
<path transform="translate(1716,1521)" d="m0 0m-1 1m-2 1 2 1-15 15 1 2-8 6-12 11-11 10-11 8-9 8-20 16-36 27-18 13-24 16-26 17-24 14-22 12-44 22-23 11-23 10-16 6-27 11-22 8-30 9-28 8-34 8-26 5-44 6h-8v-1l50-8 30-6 38-10 25-7 25-8 12-4 37-14 27-11 25-12 26-12 14-7 22-12 26-14 22-14 19-12 15-10 10-7 12-8 14-11 13-10 16-12 10-8 11-9 14-12 11-10 8-7 12-10 5-5z" fill="#2D2A1E"/>
<path transform="translate(1513,1560)" d="m0 0h12l6 2 3 5v6l-1 2h-9l-10-1-6 3-3 6 1 8 3 6 5 6 6 3 8-1 5-5 1-3 1-11 2-4 8-1 4 5 1 4v7l-5 10-10 9-9 4h-11l-11-4-8-9-5-11-1-4v-9l5-12 8-7z" fill="#1E120D"/>
<path transform="translate(1829,890)" d="m0 0h17l44 2 6 3 2 4-1 7-4 4 1 5 3 5v11l-6 12-4 1-7-5-1-5 2-6v-9l-4-6-7-2-36-3-8-2-3-4v-6l4-5z" fill="#BF4136"/>
<path transform="translate(221,686)" d="m0 0 7 1 6 5-3 10-1 2v9l2 4 5 2 18 6 23 6 4 2 1 2-1 9-5 4-24-4-37-8-5-5-2-4 1-5 7-5-3-10 1-9 4-10z" fill="#BF3F36"/>
<path transform="translate(589,163)" d="m0 0h8l5 5-2 6-16 10v11l9 19 10 15 3 5-1 6-5 4-4 1-6-4-11-15-16-24-7-12 1-6 4-4 7-1 4 1 2-6 4-6 8-4z" fill="#BE4036"/>
<path transform="translate(428,1321)" d="m0 0 4 1 11 12 10 13 7 10 7 8 11 12 17 17 7 8 10 10 8 7 10 9 7 7 13 10 14 12 14 11 11 8 19 14 18 12 4 4-4 1-16-10-16-12-11-8-19-14-13-11-12-11-11-9-12-12-8-7-40-40-16-20-18-22-5-5-13 11-11 9-13 11-10 8-13 11-9 7-14 12-11 9-16 13-13 11-10 8-8 7-8 6-1 2-2 32-1 5h-1l-2-19v-18l5-6 11-8 11-10 10-8 11-9 10-8 12-10 9-7 9-8 9-7 11-10 9-7 3-3h2v-2l11-9 7-7 11-8z" fill="#3F3624"/>
<path transform="translate(559,1553)" d="m0 0h11l11 4 8 7 5 10 1 8-3 5-2 2h-7l-2-4-2-11-3-4v-2l-9-1-8 3-5 6-3 6v11l6 6h11l6-2 5 1 1 1v9l-4 4-2 1h-13l-10-3-9-7-5-7-2-6v-8l3-10 5-8 11-10z" fill="#251A10"/>
<path transform="translate(1228,1100)" d="m0 0h2v3l-7 5-11 4-24 2-5 2-10 7-4 2-4 4-15 7-6 2-14 1h-15l-13-2-6-3-1-4 1-2h-18l-4-2h7l-3-2 16-1 3-1h16l18-8 3-1 2 2-3 1v2l5-1h12v-2l26-4 11-3 8 1 17-2 12-4z" fill="#4E9FCE"/>
<path transform="translate(523,1517)" d="m0 0 5 1 3 4 1 11-2 10 9-2 15-1 3 2v8l-7 4-17 4-2 7-2 18-3 7-9-3-2-3 1-16 1-7-14 3-13 1-3-3v-6l4-4 23-6h2l1-20 3-7z" fill="#1F130D"/>
<path transform="translate(230,563)" d="m0 0 14 3 22 8 21 7 30 12 6 4-2 9-3 3-11-1-53-19-21-8-7-5-1-2v-6l2-4z" fill="#BE3E36"/>
<path transform="translate(1232,1682)" d="m0 0h13l8 4 6 5 4 11-2 4-10 5-15 4-8 1v6l5 5h11l6-3 9-10 5 1 2 7-4 7-9 7-7 3h-18l-8-5-3-3-5-11-1-3v-18l4-8 8-6h5l-1 5-3 5 2 1-2 3-1 8 24-4 2-1-1-5-6-5-2-1v-2l-7-2v-3l-2-1z" fill="#3E341A"/>
<path transform="translate(816,1672)" d="m0 0h14l10 4 7 6 4 7-1 7-3 5-5-1-6-8-5-6-3-1h-8l-5 4-5 9v12l4 7 4 2 9-1 10-6 1-1h5l2 2v8l-5 6-9 4h-12l-11-4-8-6-5-9v-16l5-13 5-5 8-5z" fill="#2A1F12"/>
<path transform="translate(1569,1412)" d="m0 0v3l-8 7-7 7-11 9-10 9-11 9-13 10-14 11-10 7-23 16-15 10-14 9-21 12-28 15-23 12-36 16-20 8-25 9-33 11-34 9-28 6h-5l3-2-2-2 33-7 22-6 29-9 40-14 22-9 32-15 23-11 14-8 17-9 14-7 42-28 16-11 9-7 12-9 13-10 11-9 16-12 9-9 10-8z" fill="#372D1F"/>
<path transform="translate(1e3 760)" d="m0 0h26l13 4 9 5 5-1 10-5 12-3h20l21 5 21 6 12 2 31 1 3 5h-2l-1 9h-1l-1-11-19 1-20-2-22-5-25-6h-18l-15 5-6 4-1 31-2 127h-1l-1-97v-48l1-12h-2v116l-1 50h-1v-168l-12-6-7-2h-28l-29 7-22 3h-26l-2 7h-1v-6h-2l2-5h29l24-4 23-6z" fill="#A59629"/>
<path transform="translate(1371,1635)" d="m0 0h8l2 2 1 4 1 13v39l-5 5h-6l-6-4-21-21-7-9-4-5v-5l4-4 5 1 27 27-2-32v-8z" fill="#23170E"/>
<path transform="translate(1259,1239)" d="m0 0 3 1-12 7-21 10-27 9-17 3h-36l-21-3h-2l15 7 19 6 20 3h9l6-1-5 5-13 8-16 7-16 5-18 3h-39l-22-5-20-6-23-11-16-11-5-2-11 4-14 3-10 1h-10l-13-2v-1h29l15-3 12-4h2v-2l10 2 15 1h31l28-4 26-7h2l-3-3-18-9 3-1 22 10 13 4 18 3h37l20-4 25-9 19-9zm-144 24-22 7-21 4-10 1h-47l1 4 9 6 16 8 14 5 23 6 12 2 12 1h17l22-3 15-4 21-9 6-4v-2l-23-4-17-5-11-5-13-8z" fill="#4D4A45"/>
<path transform="translate(690,105)" d="m0 0 5 1 6 7 21 42 3 9-1 7-6 4h-6l-4-5-16-32-10-23v-5z" fill="#BF4036"/>
<path transform="translate(403,323)" d="m0 0 5 1 11 8 14 12 8 7 14 12 4 5-2 6-3 4h-7l-9-6-10-9-12-9-12-11-4-3v-2l-4-2-1-5 6-7z" fill="#BF4036"/>
<path transform="translate(669,1589)" d="m0 0 8 1 2 2-1 9-10 19-9 16-12 21-6 5-7-3-2-1v-6l9-17 13-23 10-18z" fill="#2C2013"/>
<path transform="translate(690,1599)" d="m0 0 7 1 2 2v9l-10 21-9 16-4 9-8 16-5 1-6-4-1-1 1-9 10-21 8-16 11-20z" fill="#0C0E0E"/>
<path transform="translate(1261,1652)" d="m0 0h8l3 3 8 24 5 21 5 17 1 9-5 3-6 1-4-4-4-13-8-30-5-18v-11z" fill="#171712"/>
<path transform="translate(1338,1250)" d="m0 0 2 1-11 9-13 10-24 15-22 12-15 8-19 8-20 8-28 9-32 8-31 6-23 3-18 2-22 1h-32l-31-2-27-4-37-8-14-4-19-6-24-9-25-11-16-8-21-11-1-2 6 2 25 13 27 12 37 14 25 7 22 5 17 3 34 4 20 1h41l28-2 29-3 25-5 27-6 27-8 29-11 26-12 19-10 11-6 20-13 13-9 14-10z" fill="#4EA2D2"/>
<path transform="translate(985,1706)" d="m0 0 3 3 1 3v15l-1 20v11h-11l-3-5v-2l-6 2-3 2-7 1h-9l-8-3-5-6-2-9 2-7 5-5 2 1-5 5v12l5 5 7 3h6v-2l4-1v-2l-8 1-3-3-1-8 4-4 4-2 10-1 12-4 7-1 2 1-1-16z" fill="#291E11"/>
<path transform="translate(1043,1151)" d="m0 0 5 2 2 4 5 2 9 3h13l10-3 5-2 1 4-8 4-6 2v2l6 2 1 3 12 4h30l14-2v-2h3v2l12-1 16-1-6 3 8 1h22l-1 3-2 1-17 1-14-2-8-3-9 1-12 3h-16l-2 7-2 2-13 1-4 1h-19l-19-5-18-8-5-4v-2l-4-2-1-1-8-1 2-2h6l7 3 17 2 16 1 4 2h-18l-4-1h-15l16 8 12 4 12 2h23l-1-2-10-5v-2l-4-2-5-3-5-2-6-5-7-3-9-2-8-7-3-2z" fill="#4F86A5"/>
<path transform="translate(899,948)" d="m0 0h5l1 1 26 1 1 2-1 3h2v3l14-1 4-1 1-2 5 5 15 2 2 5-5 1-35 1h-25l-20-1-2-3 3-4 3-1 4-8z" fill="#0D0E0E"/>
<path transform="translate(269,1470)" d="m0 0 3 1-1 2-37 10-27 6-17 3-33 3h-37l-36-2-32-4-31-5h-3l9 6 10 6 16 10 6 4-2 1-23-12-27-16-7-4v-3l9 1 39 7 10 2 32 4 15 1h58l37-5 7-2 12-2 31-8z" fill="#4A3F27"/>
<path transform="translate(877,1685)" d="m0 0 13 1 8 4 7 7 4 11-1 9-4 5-16-1-5-1v-2l-7-1-6-3-1-4 1-1 13 1 12 2-4-12-3-2v-2l-6-1-4-1-5 3h-2l-2 4h-2v9l-6 4-3-1-1-1 1-10h2l3-9 5-5z" fill="#171712"/>
<path transform="translate(1780,1474)" d="m0 0 9 2 12 3 27 8 28 6 14 1 5 1h81l10-1 11-3 17-1 16-3 12-3 22-4h4v6l-15 8-14 8-9 5-14 7-2-1 10-6 16-11 12-7 1-1-36 6-35 4-13 1h-55l-26-2-29-5-24-5-29-8-6-2z" fill="#504A36"/>
<path transform="translate(831,1203)" d="m0 0 6 2 9 4 9 2v2l5 2 17 8 15 4 18 2 18-1 18-4 4-2-21-6-2-2 10 2 14 3 9 1 9 5 11 3 14 1 15-2-4 3-11 2-12-1-15-4-8-3-8 1-14 4-17 3h-11l-17-2-9-1h-4l-12-6-5 1h-30l-19-4 4 4 14 8 16 6 16 3h26l9-1-1-2-13-5 4-1 10 3 12 2-2 4-11 3-3 1h-34l-16-4-20-9-11-7-9-6-15-1v-1l9-1h10l14 3 19 2h12l8-1-5-5-19-7-6-4z" fill="#4F4C48"/>
<path transform="translate(948,1201)" d="m0 0 5 2 4 3 10 4 10 1 23 1 1 3-12 5h-3v2l-9 1v3l2 2-10-2-9-5-19-3v-2l-6-1-9-3v-2l-4-1-1 2-4-3h-15l-10-5 3-1 3 2 5 1h11v-2l4 1 6 2 15-2z" fill="#70BFEA"/>
<path transform="translate(778,1660)" d="m0 0h9l6 5 3 6v8l-2 9-11 27-4 4-7-1-3-2 1-9 12-36-4-1v-2l-3-1-1-4z" fill="#121310"/>
<path transform="translate(1291,1141)" d="m0 0h8l-2 2-25 5-16 2-22 1 4 4 14 4 27 5 8 1h25l17-3 17-5 3-1 1 2-8 4-14 4-21 3h-20l-19-3-16-4-11-2-18-8-1-3-21 5h-20l-9-2v-2h-8l-10-4 2-2h6l7 3 12 2h20l16-4 1-1h14l5 1h25l15-1z" fill="#4E93BA"/>
<path transform="translate(71,1518)" d="m0 0 5 2 12 7 23 14 5 3 4 2-1 3-25 13-14 8-64 32h-2v2l-1 1 18 2 33 5 31 4 23 2v1h-19l-29-2-13-2-19-2-28-5-6-2 3-3 29-15 38-19 19-11 15-9-1-4-11-8-10-7-12-9z" fill="#322A1E"/>
<path transform="translate(1750,1489)" d="m0 0v3l-5 7-4 1-1 5-18 18-12 9 1 6 5 5v2l3 1 1 3 3 1v3l4 1v3l5 1 1 3h2l9 12 9 8 3 6 7 7 4 3 2-23 2-12 1-12h1v51l29 8 28 6 4 3h-17l-5-2-14-3-27-9-6-4-12-12-9-11-20-20-7-8-10-10-8 1 6-7 11-11 7-8 8-8 5-3z" fill="#3E3825"/>
<path transform="translate(710,1751)" d="m0 0 6 1 21 8 42 13 44 12 42 9 45 7 30 4 28 3 34 2h64l45-3 18-2h9v1l-35 4-19 2-18 1h-58l-38-2-30-3-48-6-42-7-43-11-23-7-47-14-27-11z" fill="#393424"/>
<path transform="translate(1248,1192)" d="m0 0 5 1 15 8 15 5 8 2h28l15-3 6-3 4 1-14 10-21 10-30 10-4 1h-25l-20-3-21-7-16-9-4-1-9 4-6 1h-8l-13-4-6-2-6-1 2-4 6 1 5 3v2l10 2h12l10-3 5-4h3l1 2h7l21-4 16-7 7-5zm1 2-7 6-14 7-14 4-11 2-3 3 7 5 17 6 14 3 10 1h23l16-3 24-8 8-4 7-3 2-3-16 1h-12l-14-2-18-6-16-9z" fill="#4C4B47"/>
<path transform="translate(611,1585)" d="m0 0h13l10 5 8 9 3 7v7l-4 11-4 5-6-1-14-7-9-6-2-2-4-1-1 4v8l3 6 8 3h12l7 2-1 5-1-3v-2h-19l-8-4-3-5v-11l3-5 5 1 6 5 8 2 5 3 2-2-6-5v-2l-5-2-8-5 1-5 5-3h8l8 5 2 4v5h8l1-1v-6l-8-10-8-6h-18l-8 5-7 8-4 10-1 13-2-4 2-13 5-10 6-7 8-4z" fill="#3E341E"/>
<path transform="translate(1095,1159)" d="m0 0 7 1 5 2 17 2 18 9v3l-7 2-7 1h-30l-12-4-1-4-6-1v-4l6-2z" fill="#73C1ED"/>
<path transform="translate(1113,1102)" d="m0 0h5l3 3 7 2 8 1v4l-16 8-7 3h-16l-3 1h-17l-7-3 5-4 18-9 12-1 7-4z" fill="#76C4EF"/>
<path transform="translate(1078,1713)" d="m0 0 8 2 6 5 2 6v13l-4 7-6 3h-7l-5-3-4-8-1-9 2-8 6-7z" fill="#FBE22C"/>
<path transform="translate(1159,950)" d="m0 0 16 1h22l1 3 4 2 4 5-19 2-7 2-3-1-1 2-16 1-13-1v-2l-26-2 3-3h23l3-3 5-2v2l2-1v-4z" fill="#0D0F0F"/>
<path transform="translate(1e3 1705)" d="m0 0 4 2 5 6 1 3-2 13-2 24-1 6-2 1h-8l-3-2v-17l2-32 1-2z" fill="#0C0E0E"/>
<path transform="translate(1513,1560)" d="m0 0h12l6 2 3 5v6l-1 2h-9l-10-1-6 3-3 6 1 8 3 6 5 6 6 3 8-1 5-5 1-3 1-11 2-4 8-1 4 5 1 4v7l-5 10-10 9-9 4h-11l-11-4-8-9-5-11-1-4v-9l5-12 8-7zm4 2-7 2-7 4-7 7-4 8v10l4 10 7 8 8 5 3 1h10l9-4 8-6v-2l4-2 3-7v-7l-3-3h-6l-1 1-2 13-3 5-5 3h-10l-6-3-7-8-2-6 1-10 3-7 12-3 6 2h6v-6l-4-4z" fill="#6C6430"/>
<path transform="translate(1072,1702)" d="m0 0h8l7 1 2 4-1 5-2 1-4-1-8 4-4 5-2 8v12l-2 2-6-1-5 2-2-7v-13l2-9 4-6 5-4z" fill="#281E10"/>
<path transform="translate(1569,1412)" d="m0 0v3l-8 7-7 7-11 9-10 9-11 9-13 10-14 11-10 7-23 16-15 10-14 9-21 12-20 11-2-1-1-3 16-9 16-8 14-8 19-13 15-10 16-11 9-7 12-9 13-10 11-9 16-12 9-9 10-8z" fill="#38311F"/>
<path transform="translate(344,1524)" d="m0 0 3 1-1 4-10 9-7 8-6 5-9 11-12 14-14 15-8 8-12 5-37 10-24 4-15 1h-24v-1l41-5 25-5 41-10 4-1v-13l2-1v9l7-7 9-10 5-5 4-5 9-11h2l1-3 3-3 1-2h3l1-4 6-5h2l2-4h2v-3l4-1z" fill="#32291C"/>
<path transform="translate(1561,1525)" d="m0 0h10l8 3 6 5 3 6-1 5-7 7-13 10-4 3v4l6 3h6l6-4 4-8 3-9 2-2h5l3 4 1 6-3 10-7 8-11 8-2 1h-14l-12-6-7-8-4-9-1-4v-11l4-10 7-7 8-4zm-1 3-8 4-9 9-3 6v12l5 10 5 5 7 5 7 3h13l9-6 5-4 4-7 1-6-2-7-4 1-5 15-7 6h-10l-6-3-2-4 1-4 18-14 6-6v-6l-10-8-3-1z" fill="#72692B"/>
<path transform="translate(1470,1588)" d="m0 0 9 1 5 4 7 10 8 14 5 11v6l-5 4h-6l-6-7-10-18-6-9h-6l-6 4-1 2v7l8 17 5 9 1 9-5 4h-6l-6-7-14-27-6-11 1-4 4-5 5 1h4l7-9 6-4zm-2 3-8 4-7 8-3 4-10-1-1 7 8 16 8 14 7 9 2 2 5-1 1-7-13-26-1-9 5-7 5-2h8l2 5 11 18 4 8 3 3h5l3-3-1-6-6-12-5-7-4-8-8-8-2-1z" fill="#665F36"/>
<path transform="translate(272,1452)" d="m0 0h2v19l1 11 1 1 1-17 2 4v13l1 27 1 13 1 26v39l3 1-2 3h-2l-1-6-1 11h-1l-3-59-3-58-1-9-10 1 3-2 6-2 1-9v-6z" fill="#565144"/>
<path transform="translate(1716,1521)" d="m0 0m-1 1m-2 1 2 1-15 15 1 2-8 6-12 11-11 10-11 8-9 8-20 16-36 27-18 13-24 16-11 7-4-2 22-14 10-7 21-14 14-11 13-10 16-12 10-8 11-9 14-12 11-10 8-7 12-10 5-5z" fill="#605937"/>
<path transform="translate(278,1454)" d="m0 0 8 6 8 8 4 5 4 3v2l4 2 39 39 11 9 12 12 8 7 3 4-4-2-17-14-8-7-3-1-3-3-1 3-4-8-4-2-7-6-4-4v-2l-3-1-5-6-5-5-5-4-7-8-5-4-5-5-4-5-6-3h-1z" fill="#595542"/>
<path transform="translate(382,1554)" d="m0 0 4 2 11 9 12 10 9 7 16 13 13 10 11 7 10 8 17 12 21 14 40 25 22 13 28 15 20 11-2 1-35-17-20-11-31-19-14-9-27-18-11-8-19-14-32-24-13-11-13-10-10-8-7-7z" fill="#4D4434"/>
<path transform="translate(1414,1617)" d="m0 0h11l6 3 13 24 8 13 1 6-5 3h-6l-6-2-2 4-7 8-6 4-3 1h-7l-9-3-4-4-2-5v-9l4-6 12-11 7-6v-5l-1-1h-7l-6 3-4 5-1 7-4 4-5-1-4-5 1-8 5-9 11-7zm2 2-10 4-11 7-5 7-1 7 3 4 5-1 4-11 6-5 5-2 8 1 2 2v6l-2 4-5 2-12 11-4 5-1 7 3 8 7 4h10l8-4 8-9 2-3 10 1 4-2-1-7-6-9-8-15-7-10-6-2z" fill="#71682B"/>
<path transform="translate(505,1407)" d="m0 0 4 2 12 11 8 7 8 8 13 10 14 12 14 11 11 8 19 14 18 12 4 4-4 1-16-10-16-12-11-8-19-14-13-11-12-11-11-9-12-12-8-7-3-3z" fill="#42381B"/>
<path transform="translate(1536,1662)" d="m0 0h4v2l-19 12-26 15-27 14-32 16-23 11-23 10-15 5-3-2 27-11 25-12 26-12 14-7 22-12 26-14 22-14z" fill="#4B4532"/>
<path transform="translate(1167,1686)" d="m0 0h14l4 4v10l-4 4-13 3h-10l-2-3-2-16 2-1z" fill="#FBE22C"/>
<path transform="translate(1642,1344)" d="m0 0 6 2 13 10 9 9v2l3 1v2l4 2 14 12 19 19 9 7 10 9 15 15 11 8 11 10 6 7 6 4v11l-1 7h-2l-1-3v-9l-3 1-1-2 2-3-1-4-24-22-10-9-11-10-8-7-15-13-8-7-11-10-8-7-11-10-8-7-13-12z" fill="#362C1B"/>
<path transform="translate(1235,1680)" d="m0 0 11 1 8 4 2 4-8-5-3-1h-11v4l6 2v2l5 2 1 3 3 1 1 5-3 2-17 3h-7v-8l1-3-1-2 4-5 1-4-7 2-4 4h-2l-1 4-2 4v18l4 9 1 4-4-4-3-7-1-5v-12l3-9 5-6 8-5z" fill="#322817"/>
<path transform="translate(863,1100)" d="m0 0 2 1-5 4-9 4-17 10-21 8-10 2v2l1 1 24 4h42l22-4 19-6 16-7 15-10 8-6h5l-5 5-16 10-15 8-16 6-23 6-19 2h-28l-19-3-14-4-6-3v-2l16-3 17-6 14-7 7-6z" fill="#524F4A"/>
<path transform="translate(1223,1685)" d="m0 0h5l-1 5-3 4-1 4v12l-2 2 1 6 5 8v2l9 3 2 5h-10l-7-5-1-3h-4l-4-8-1-3v-18l4-8z" fill="#0D0E0E"/>
<path transform="translate(1076,760)" d="m0 0h20l21 5 21 6 12 2 31 1 3 5h-2l-1 9h-1l-1-11-19 1-20-2-22-5-25-6h-18l-15 5-6-1 5-4 12-4z" fill="#C1B036"/>
<path transform="translate(1035,1706)" d="m0 0 5 1 4 4-1 9 1 3-2 2v-2l-3 2v2l3 1 1-2v12l-3 9 5 1v11l-3 2h-7l-2-1v-46h-3l1-3h2z" fill="#121311"/>
<path transform="translate(668,1594)" d="m0 0h8l-1 7-4 7-5 5-2 7-1 3h-2l-1 5-6 8-3 3h-2v2h-2l-2 5-4 1-1-7 6-10 5-8 2-1 8-16 4-7h2z" fill="#0B0E0E"/>
<path transform="translate(1e3 1270)" d="m0 0 10 2 15 1h31l21-3h4l1 3-22 3h-38l-9-1 3 5 18 10 16 6 21 6 5 1-1 3-8-1-23-7-23-11-16-11-5-2-11 4-14 3-10 1h-10l-13-2v-1h29l15-3 12-4h2z" fill="#4F4C47"/>
<path transform="translate(1e3 760)" d="m0 0h26l13 4 7 4v5l-16-7-4-1h-28l-29 7-22 3h-26l-2 7h-1v-6h-2l2-5h29l24-4 23-6z" fill="#71692B"/>
<path transform="translate(363,1376)" d="m0 0 1 3-13 12-10 8-17 14-11 9-17 14-8 7-8 6-1 2-2 32-1 5h-1l-2-19v-18l5-6 11-8 11-10 10-8 11-9 10-8 12-10 9-7 9-8z" fill="#393223"/>
<path transform="translate(1498,1019)" d="m0 0 1 2-6 21-12 29-8 16-10 21-7 3 1 5-4 7-4 6h-2l-1 7-6 9-14 20-7 8v-3l14-19 7-11 4-5v-6l5-4 5-8 1-3-21 6-9 2-4 2-9 1-3 1v-2l-20-1-19-5-1-2 17 4 12 1h15l17-3 17-5 5-2v-3l10-2 2-7 10-19 12-27 8-22 3-11z" fill="#524F49"/>
<path transform="translate(1055,947)" d="m0 0h4l-1 3h3v4l11 2-3 2-3 1-3 7h-34l-2-1 1-3 6-3-2-1v-2l9-2 1-2 6-3h6z" fill="#0D0E0E"/>
<path transform="translate(608,1587)" d="m0 0h18l8 6 8 9 1 2v6l-2 2h-6l-2-1-3-12-7-5h-8l-9 2-5 5-5 2-2 7-4 4v-9l6-9 8-7z" fill="#0B0E0E"/>
<path transform="translate(1372,1637)" d="m0 0h6l2 2v53l-3 2-2-3v-3l-5-1-2-1v-3h4v-11l-2-18v-15z" fill="#0B0E0F"/>
<path transform="translate(2044,1480)" d="m0 0h4v6l-15 8-14 8-9 5-14 7-2-1 10-6 16-11 12-7 1-1-30 5-17 1-11 1-2-2h4v-2l17-1 16-3 12-3z" fill="#4A4530"/>
<path transform="translate(0,1476)" d="m0 0 9 1 39 7 10 2 32 4 4 2h-19l-37-5-22-4 13 8 16 10 14 9-2 1-23-12-27-16-7-4z" fill="#2B251C"/>
<path transform="translate(1949,1540)" d="m0 0 2 1-5 5-4 5 8 7 13 8 21 11 23 10 38 19 3 2-10 1v-3l-9-3-24-12-40-21-19-9-4-3-10-5 1-3 6-4 7-4z" fill="#4A4523"/>
<path transform="translate(690,1599)" d="m0 0 7 1 2 2v9l-10 21-9 16-4 9-8 16-5 1-2-2 6-2 3-7 3-12 4-8 3-7 2-6 4-2 4-16v-9h-2l-1 4-2 6h-2v2l-3 1 2-6 5-8z" fill="#2F2414"/>
<path transform="translate(1177,1614)" d="m0 0h7l-1 2h-3v2l-27 5-42 6-23 2-18 1h-61l-15-1v-1h60l33-1 19-2 4-1h-8l4-2 29-3 25-4z" fill="#534B2D"/>
<path transform="translate(1107,1625)" d="m0 0 4 1-5 2-19 2-33 1h-44l-43-3v-1l122-1z" fill="#15100D"/>
<path transform="translate(1750,1489)" d="m0 0v3l-5 7-4 1-1 5-18 18-12 9 1 6 5 5v2l3 1 1 3 3 1v3l4 1v3l5 1 1 3h2l9 12 9 8 1 3h-2l-1-2h-3l-7-8-17-17-7-8-10-10-8 1 6-7 11-11 7-8 8-8 5-3z" fill="#49453F"/>
<path transform="translate(1317,1662)" d="m0 0h10l6 4 6 7 2 6-5 6-16 6-5-1-3-1v-2h2v-2l13-4-1-5-4-5-3-1v-2h-6l1-2h4l-2-1z" fill="#0C0E0E"/>
<path transform="translate(1025,1093)" d="m0 0 5 1v2l-7 2-1 3-3 2-18 5-8 1h-20l-13-1-6-1-5 2 4-5-3-2 3-4 3 3 16 2h18l18-3 12-4z" fill="#4EA0D0"/>
<path transform="translate(1232,1682)" d="m0 0h13l8 4 6 5 4 11-2 4-6 2-11 1v-2l-2-1 7-4-1-5-6-5-2-1v-2l-7-2v-3l-2-1z" fill="#121210"/>
<path transform="translate(684,1673)" d="m0 0 1 2 3 1v3h2l5 5 5 1v-2l-2-1-1-6 8 6h12l5-2 5 1 3 2-1 5-5 4-5 2h-10l-10-3-9-6-4-5-2-4z" fill="#392E19"/>
<path transform="translate(927,1214)" d="m0 0 10 2 14 3 9 1 9 5 11 3 14 1 15-2-4 3-11 2-12-1-15-4-8-3-8 1-14 4-17 3h-11l-17-2-9-1h-4l-13-7-1-3 5 1 13 5 14 3 19 1 18-2 14-4 2-1-21-6z" fill="#353431"/>
<path transform="translate(1513,1560)" d="m0 0h12l6 2 3 5v6l-1 2h-9l-10-1-6 3-3 6 1 8 3 6 5 6 6 3 8-1 5-2 2-4 2-13 2-3 7 2 1 2h-8l-2 13-4 6-5 3h-10l-6-3-5-4-5-10 1-11 3-7 7-3 6-1 12 3-1-8-13-2-7 2-7 4-6 6-2-1 4-5 9-6 5-1z" fill="#6C6431"/>
<path transform="translate(277,1597)" d="m0 0 3 2-12 5-37 10-24 4-15 1h-24v-1l41-5 25-5 41-10z" fill="#413E2F"/>
<path transform="translate(1048,775)" d="m0 0h2v166l-2 4-1-4v-50z" fill="#524F4A"/>
<path transform="translate(1043,1151)" d="m0 0 5 2 2 4 5 2 9 3h13l10-3 5-2 1 4-8 4-6 2v2l6 2 1 3 12 4 13 1 2 2-4 1h-11l-10-2-7-5-5-2-6-5-7-3-9-2-8-7-3-2z" fill="#4E9FCE"/>
<path transform="translate(1416,1619)" d="m0 0 9 1 3 1 1 3-8-1-4 1 1 3 2 2h-8l-8 4-4 5-3 9-5 1-3-4 1-7 6-8 10-6z" fill="#1E120D"/>
<path transform="translate(1025,1168)" d="m0 0h6l7 3 17 2 16 1 4 2h-18l-4-1h-15l16 8 12 4 12 2h21l6-3 11-2-1 4-2 2-16 3h-19l-19-5-18-8-5-4v-2l-4-2-1-1-8-1z" fill="#524F4A"/>
<path transform="translate(795,1671)" d="m0 0h1v8l-2 9-11 27-4 4-7-1-3-2 1-9 2-5 1 4-1 5 2 4 5-1 3-21 4-10 4-2h3z" fill="#2D2012"/>
<path transform="translate(966,1730)" d="m0 0h8l-2 10-5 5-2 1h-11l-4-3-1-5 3-5 4-2z" fill="#FBE22C"/>
<path transform="translate(1371,1635)" d="m0 0h8l2 2 1 4 1 13v39l-5 5h-6l-6-4-1-2 4 2 7 2 4-3 1-6-1-42-2-7h-6l-1 1v15l1 11v17l-5-2-9-11-16-16-5 1h-3l4-4 5 1 27 27-2-32v-8z" fill="#635D39"/>
<path transform="translate(1094,1682)" d="m0 0h10l1 2v19l-1-2h-4l2 7v12h-3l-3-8-2-5z" fill="#0B0E0E"/>
<path transform="translate(818,1675)" d="m0 0h8l10 4 6 2 5 5v10l-3 2-5-1-3-5-2-7-6-2-5-1h-11l-1-5z" fill="#0D100F"/>
<path transform="translate(10,1604)" d="m0 0 7 1 47 7 31 4 23 2v1h-19l-29-2-13-2-19-2-28-5z" fill="#443B21"/>
<path transform="translate(1282,1231)" d="m0 0 4 1-3 3 7 1 15 2 26 1 13-4 3 1-10 4-9 2h-26l-17-2-9-3-9 1-5 2-3-2 2-1-1-1-19-2v-1h34z" fill="#4F8BAD"/>
<path transform="translate(818,1121)" d="m0 0 3 1-11 4-11 2h-5v2l6 2 14 4 19 3h28l19-2 19-5 4 1-16 5-8 2-22 2h-14l-17-1-20-4-10-3-6-4v-5l6-2 7-1 9 1z" fill="#4EA2D2"/>
<path transform="translate(1333,1655)" d="m0 0 2 4 9 11 1 2-6-3 3 6v7l-7 5-15 6-12 2 2 6 2 4-3-1v-2h-2l-1-7 6-3 17-5 8-4 3-5-4-8-7-6-8-3-12 1-10 6-6 8-2 7-1 10h-1v-14l4-9 5-6 9-4 5-1h12l9 3-1-5z" fill="#71682E"/>
<path transform="translate(879,1696)" d="m0 0 9 1 5 5 2 6v4h-7l-16-3-2-1 1-5 5-6z" fill="#FBE22C"/>
<path transform="translate(1441,1603)" d="m0 0 4 2v2l-5-1v7l8 16 8 14 7 9 4 1h2v-7l-13-26-1-9 3-3v9l8 17 5 9 1 9-5 4h-6l-6-7-14-27-6-11 1-4 2-3z" fill="#696233"/>
<path transform="translate(1038,1705)" d="m0 0 5 2 3 3 3 9v12l-2 26-3 5-4-1 5-2v-11h-6l3-10v-10l-4-1 2-4 3-1-1-6 1-5-5-4z" fill="#2B2012"/>
<path transform="translate(1236,1155)" d="m0 0 16 4 27 5 8 1h25l17-3 17-5 3-1 1 2-8 4-14 4-21 3h-20l-19-3-23-6-9-4z" fill="#524F4A"/>
<path transform="translate(1569,1412)" d="m0 0v3l-8 7-7 7-11 9-10 9-11 9-13 10-14 11h-3l2-2v-3l12-9 13-10 11-9 16-12 9-9 10-8z" fill="#433A22"/>
<path transform="translate(838,1711)" d="m0 0h5l2 2v8l-5 6-6 3h-13l-4-4 1-4v2l9-2 8-7z" fill="#281C12"/>
<path transform="translate(1426,1645)" d="m0 0 3 3v11l-4 6-6 3-6-1-2-2v-6l7-8z" fill="#FBE22C"/>
<path transform="translate(615,1597)" d="m0 0h8l6 4 2 4v9l-4 2-18-11 1-5z" fill="#FBE22C"/>
<path transform="translate(1231,1692)" d="m0 0h8l5 3 3 4-1 4-16 4h-7v-8l5-5z" fill="#FBE22C"/>
<path transform="translate(1322,1106)" d="m0 0 5 1 10 4h8l16-2 6 3 4 7-11-3-8-1-5 1h-11l-9-3-4-2-3 3h-3v2l-5 2-2 3-4-1 5-5 5-2 3-4h2z" fill="#4EA0CF"/>
<path transform="translate(891,1614)" d="m0 0 9 1 26 5 23 3 30 3v2l13 1v1h-14l-27-3-34-5-32-6v-1z" fill="#3B3827"/>
<path transform="translate(1536,1662)" d="m0 0h4v2l-19 12-26 15-23 12-3-1 4-4 28-15 14-8 19-12z" fill="#40392A"/>
<path transform="translate(523,1517)" d="m0 0 5 1 3 4 1 11-2 10 9-2 15-1 3 2v8l-7 4-17 4-2 7-2 18-3 7-7-2v-1h6l2-10 3-19 3-3 18-4 3-2 1-6h-10l-10 2-2 2-4-1v-22l-1-3-6-1v2h-2l-2 22-1 3-7 1 4-2h2l1-20 3-7z" fill="#6F662E"/>
<path transform="translate(1224,1695)" d="m0 0 2 1-2 3-1 8 16-3h7l-3 2 1 3 15-3-3 3-12 4-17 2-1 3v5l-5-5-1-6 2-4v-10z" fill="#2F2414"/>
<path transform="translate(669,1589)" d="m0 0 8 1 2 2-1 9-4 5h-2l2-5 2-7h-8l-1 4h-2l-1 4-7 12-4 8-4 4-7 13-6 10-2 5v4h-2v-6l9-17 13-23 10-18z" fill="#1F130D"/>
<path transform="translate(1068,1167)" d="m0 0 5 2 4 4 4 2-4 2h-25l1 4 11 4 12 2 3 1h22l-2 2h-21l-15-3-11-4-14-7-1-2h16l10 1h8l-16-1-17-2v-1h12l12 1h7z" fill="#4EA2D2"/>
<path transform="translate(418,1330)" d="m0 0 1 4-15 13-22 18-13 11-5 3 1-5 8-7 12-10 8-7h2v-2l11-9 7-7z" fill="#3D3622"/>
<path transform="translate(1310,1671)" d="m0 0h9l5 3 2 3-1 4-17 6-5-1 1-9 5-5z" fill="#FBE22C"/>
<path transform="translate(708,1646)" d="m0 0h9l7 4 2 10-2 2-9-2-8-3-5-2 1-5z" fill="#FBE22C"/>
<path transform="translate(1159,950)" d="m0 0 30 2v1l-5 1-1 3 2 1-15 2-4 1h-7l-10-1v-3l6-3v2l2-1v-4z" fill="#1D130E"/>
<path transform="translate(955,1206)" d="m0 0 10 3 2 1 10 1 23 1 1 3-12 5-3 1h-22v-1l6-1h8v-2h-9l2-4-7-1-9-5z" fill="#4EA2D2"/>
<path transform="translate(677,81)" d="m0 0h6l4 3 2 9-6 5-7 1-6-7 1-6z" fill="#C24837"/>
<path transform="translate(863,1098)" d="m0 0m-2 1h2v2l-15 6h-2l-2 4-6 4-14 6-3-1 7-3v-4l-17 3h-26l-12-2v-1h41l13-2h5l1-3 18-5 7-3z" fill="#507B92"/>
<path transform="translate(524,1659)" d="m0 0 4 1 15 9 13 8 17 10 12 6 22 12 9 5-2 1-35-17-20-11-31-19-4-3z" fill="#413A29"/>
<path transform="translate(1412,1619)" d="m0 0 4 1-10 4-11 7-4 6-1 7 2 3h4l4-11 7-6 5-2 8 1 3 3v6l-5 5-10 8-8 9-1 7-1 4-1-3v-7l4-6 11-12 7-6v-5l-1-1h-7l-6 3-4 5-1 7-4 4-5-1-4-5 1-8 2-3h2l2-4 10-7z" fill="#645E38"/>
<path transform="translate(847,1110)" d="m0 0m-1 1m-2 1h2v2l-16 8-15 6h-4v3l9 1 10 3h38l19-3 21-6 3 1-19 6-22 4h-42l-24-4-3-4 14-4 21-8z" fill="#4EA2D2"/>
<path transform="translate(710,1751)" d="m0 0 6 1 21 8 42 13 44 12 18 4-1 3-18-4-36-10-19-6-30-9-27-11z" fill="#4C4632"/>
<path transform="translate(941,1726)" d="m0 0 2 1-5 5v12l5 5 7 3h6v-2l4-1v-2l-8 1-3-3-1-8 2-2 1 8 3 2h13l-1 3 8 2v1l-6 2-3 2-7 1h-9l-8-3-5-6-2-9 2-7z" fill="#2A1F11"/>
<path transform="translate(721,1639)" d="m0 0 5 1 5 3 4 4 2 12-3 1 1 4v5l-6 1-3-3 3-4-3-12-2-4-4-3z" fill="#0B0E0E"/>
<path transform="translate(1636,1342)" d="m0 0 3 1-7 8-14 14-1 2h-2l-2 4-6 7-5 5-7 6-7 8-11 11-2-1 17-17 7-8 10-12 8-10 11-12z" fill="#3D3320"/>
<path transform="translate(796,1698)" d="m0 0 4 2 3 1 4 7 2 9 3 1 1 7h-3l-6-3-8-7z" fill="#0C0F0F"/>
<path transform="translate(1716,1521)" d="m0 0m-1 1m-2 1 2 1-15 15 1 2-8 6-12 11-11 10-11 8-9 8-2-1 9-10 10-8 12-11 8-7 12-10 5-5z" fill="#5F593D"/>
<path transform="translate(754,1208)" d="m0 0 7 1 11 4 7 1 29 1v1l-10 1 8 2 3 3-5-1-26-1-17-5-6-4z" fill="#4EA0CF"/>
<path transform="translate(1214,1224)" d="m0 0 10 2 14 3 10 1h23l16-3 6-2h6l-1 2-23 7h-25l-20-3-16-5z" fill="#484541"/>
<path transform="translate(1561,1538)" d="m0 0 9 2 1 5-11 10-3 2-4-1-2-6 2-7 5-4z" fill="#FBE22C"/>
<path transform="translate(1239,1599)" d="m0 0 3 1-1 1 2 2-30 8-28 6h-5l3-2-2-2 33-7 22-6z" fill="#403323"/>
<path transform="translate(71,1518)" d="m0 0 5 2 12 7 23 14 5 3 4 2-1 3-12 6-2-1 1-4 2-1-1-4-11-8-10-7-12-9z" fill="#373221"/>
<path transform="translate(381,306)" d="m0 0h6l5 5v7l-4 5h-7l-5-5-1-5 3-5z" fill="#BF4236"/>
<path transform="translate(1129,1805)" d="m0 0h9v1l-35 4-19 2-18 1h-58l3-2 55-1 45-3z" fill="#554F31"/>
<path transform="translate(2029,1483)" d="m0 0h11l-2 2-8 1v2l-27 5-17 1-11 1-2-2h4v-2l17-1 16-3 12-3z" fill="#30271E"/>
<path transform="translate(627,1505)" d="m0 0 6 2 16 10 13 8 20 11-2 2-7-1-20-12-15-10-10-7z" fill="#322C1A"/>
<path transform="translate(808,1699)" d="m0 0h1l1 11 4 7 4 2 9-1 8-5 2 1-8 8-4 2h-7l-1 2 3 1 1 2 10 1v1h-12l-11-4-8-6-2-4 4 2 3 3 7 3-1-7-4-4z" fill="#362B18"/>
<path transform="translate(1150,1301)" d="m0 0h6v2l-21 5-8 1h-39l-10-2-4-3h10l18 2h17l22-3z" fill="#2A2A29"/>
<path transform="translate(363,1376)" d="m0 0 1 3-13 12-10 8-17 14-11 9-3-1 2-4 13-10 14-12 12-9 10-9z" fill="#382E21"/>
<path transform="translate(1291,1141)" d="m0 0h8l-2 2-25 5-16 2-22 1 2 4-6-2-12-6 1-2h6l5 2h21l26-3z" fill="#51504D"/>
<path transform="translate(1369,1746)" d="m0 0h6l-3 3-28 11-19 7-12 3-5-1 3-2 24-8z" fill="#2F2B1E"/>
<path transform="translate(1435,1513)" d="m0 0 2 1 4-1-3 3-24 14-19 10-5 2-1-4 16-9 16-8z" fill="#3A311F"/>
<path transform="translate(680,1537)" d="m0 0 6 1 22 12 24 11-4 2-6-2-23-10-22-12z" fill="#3C321D"/>
<path transform="translate(1563,1535)" d="m0 0 6 2 6 4v5l-6 5-13 9-5-1-2-3-1-10 4-6 7-4zm-2 3-6 3-3 4-1 6 3 6 4-1 8-7 5-4-1-5z" fill="#696133"/>
<path transform="translate(916,1269)" d="m0 0h5l9 4 9 3 10 2-2 2 10 1h10l15-2 9-2 4 1-16 4-8 1h-20l-13-2-18-6-4-3z" fill="#4EA0CF"/>
<path transform="translate(1772,1550)" d="m0 0h1l-1 53-5-1-14-14-4-5v-2l3 1v2l4 2 3 4 4 4 4 3 2-23 2-12z" fill="#282019"/>
<path transform="translate(1143,1208)" d="m0 0 6 1 5 3v2l10 2h12l10-3 5-4h3l1 2h11v2l-5 2 3 3 9 4 2 2-3 1-16-8-4-3-5 1-7 3-6 1h-8l-13-4-6-2-6-1z" fill="#4F4D48"/>
<path transform="translate(1340,1656)" d="m0 0 5 1 2 4 4 6h2l7 8 2 5-1 2-5-1v-2l-4-2-5-5-8-9-1-4z" fill="#0B0E0F"/>
<path transform="translate(586,1474)" d="m0 0 8 6 19 13 17 12-4 2-16-10-16-12-11-8 3-1z" fill="#3F361E"/>
<path transform="translate(575,1560)" d="m0 0 9 2 4 4 1 5 3 6v6l-1 1h-5l-2-2-3-13-4-2-3-2z" fill="#0B0E0E"/>
<path transform="translate(559,1553)" d="m0 0h11l11 4 8 7 5 10 1 8-3 5-2 2h-7l-2-4-2-11-3-4 1-2 4 5 2 11v3l7-1 2-2v-9l-3-6-5-6-11-7h-15l-8 4-7 8-5 9-1-3 5-9 7-7 5-4z" fill="#655E37"/>
<path transform="translate(94,1491)" d="m0 0 67 1 8 1v1l-12 1h-37l-36-2v-1z" fill="#524B2F"/>
<path transform="translate(1734,1425)" d="m0 0 7 6 10 8 11 9 6 7 6 5 4 3v11l-1 7h-2l-1-3v-9l-3 1-1-2 2-3-1-4-24-22-10-9-3-3z" fill="#463F2E"/>
<path transform="translate(831,1203)" d="m0 0 6 2 9 4 9 2v2l5 2 6 3-1 5-3 1h-30l-18-4 1-2 26 3h12l8-1-5-5-19-7-6-4z" fill="#44423F"/>
<path transform="translate(1144,1161)" d="m0 0 7 1 9 4 3 3-4 2h-15l-12-6-1-2z" fill="#76C4EF"/>
<path transform="translate(1190,1725)" d="m0 0 8 2 8 9 1 6-1 1h-6l-4-2-7-9-1-5z" fill="#0B0E0F"/>
<path transform="translate(1126,770)" d="m0 0h9l15 3 31 1 3 5h-2l-1 9h-1l-1-11-19 1-20-2-9-3-5-2z" fill="#91842E"/>
<path transform="translate(1059,1718)" d="m0 0 2 3 2 15 4 4-1 3-6-1-5 2-1-3v-14l1-8 3 1z" fill="#0E1010"/>
<path transform="translate(1972,1492)" d="m0 0h5l-2 2 11-1h11v1l-35 4-13 1h-55v-1h38v-2l24-1 10-1z" fill="#676035"/>
<path transform="translate(34,1482)" d="m0 0 22 3 7 2 27 3 4 2h-19l-37-5-17-3v-1h8l7 2v-2z" fill="#444025"/>
<path transform="translate(1218,1144)" d="m0 0h14l5 1h33v1l-19 2h-21l-5-2h-6l17 9 12 5-4 1-12-5-10-5v-2l-7 2h-10l2-2h3v-2z" fill="#4D96BF"/>
<path transform="translate(1593,1625)" d="m0 0 2 1-12 9-16 11-21 14-6 3-3-2 22-14 10-7 21-14z" fill="#5D5737"/>
<path transform="translate(925,1067)" d="m0 0h2l1 4-10 9-16 9-22 6-3-1 9-3-8-1 1-2h10l16-5 12-7 6-5z" fill="#4E9CC9"/>
<path transform="translate(503,1471)" d="m0 0 5 3 8 8 8 7 8 8-1 4-4 4-6-1-10-8-14-13-5-1-8 9v-3l4-6 5-3 6 2 4 4v2l4 2 10 9 6 4 5-2-1-5-5-5-16-15-3-2z" fill="#70652E"/>
<path transform="translate(1586,1542)" d="m0 0v3l-11 10-12 9v4l7 4v2l9-3 5-5 3-9 3-7 3-1 3 3 1 5-2 2-1-7-3 1-5 15-8 7h-10l-6-3-3-3v-5l11-9 9-7z" fill="#6D6530"/>
<path transform="translate(428,1321)" d="m0 0 4 1 11 12 8 11-4 2-8-10-10-11-8 7h-2l-1-2h-3l7-6z" fill="#5B5334"/>
<path transform="translate(1292,1134)" d="m0 0 6 1 13 5 18 2v1h-15l7 4 17 4 20 1v2l-7 3-4-2-14-2-15-5-26-13z" fill="#524F4A"/>
<path transform="translate(1037,275)" d="m0 0h19l31 2 8 1v1l-38-1h-19l-29 1h-15v-1l17-2z" fill="#615B41"/>
<path transform="translate(1020,1114)" d="m0 0h15l9 3 6 1h8l11-2 4 1-9 4-4 1h-8l-24-3-8-3z" fill="#4D4A46"/>
<path transform="translate(1540,1581)" d="m0 0h5l4 5 1 4v7l-5 10-10 9-9 4h-11l-4-1 1-2h14l10-5 5-4 5-8 1-4v-7l-2-4-6-1-2 9-2 8-3 4-2-1 4-7 1-11 2-4z" fill="#786E26"/>
<path transform="translate(269,1470)" d="m0 0 3 1-1 2-33 9-12 1-10 2 3-3 31-8z" fill="#463E25"/>
<path transform="translate(1181,1167)" d="m0 0h9l-3 3-14 4-16 2-13 1 1-3-4-1-5-2 3-1 4 1h21l14-3z" fill="#3D3C39"/>
<path transform="translate(1504,1577)" d="m0 0h1v11l4 9 5 6 6 3 8-1 5-2 2-4 2-13 2-3 7 2 1 2h-8l-2 13-4 6-5 3h-10l-6-3-5-4-5-10 1-11z" fill="#6C6430"/>
<path transform="translate(1356,1154)" d="m0 0 2 1-7 5-13 5-15 3-21 3h-11l-21-3-22-6 4-1 21 5 14 2h20l21-3 17-5 4-4 6-1z" fill="#4EA2D2"/>
<path transform="translate(728,1561)" d="m0 0 8 2 29 12 5 2 1 3h-7l-26-11-10-5z" fill="#37301D"/>
<path transform="translate(1150,1160)" d="m0 0 6 1 4 2 17 2h15v4l-5 1 2-2h-8l-11 3-12 1 1-2 3-2-7-3-4-2z" fill="#4E94BC"/>
<path transform="translate(1235,1788)" d="m0 0 2 1 1 2-31 6-44 6h-8v-1l50-8z" fill="#49452F"/>
<path transform="translate(863,1100)" d="m0 0 2 1-5 4-9 4-17 10-21 8-10 2v2l3 3-6-1-6-3v-2l16-3 17-6 14-7 7-6z" fill="#524F4A"/>
<path transform="translate(1205,898)" d="m0 0 3 3 5 37 1 14 2 9v4l-3-1-2-10-4-35z" fill="#786E26"/>
<path transform="translate(865,1219)" d="m0 0 5 1 13 5 14 3 19 1h14l-2 2-8 1h-11l-17-2-9-1h-4l-13-7z" fill="#2C2E2C"/>
<path transform="translate(2039,1608)" d="m0 0h9v3l-16 3-14 2-13 2h-13l2-2 40-7z" fill="#3A3423"/>
<path transform="translate(1093,1249)" d="m0 0 5 1 20 9 15 5v1l-14-1-6 1-24 7h-6v-2l29-8h2l-3-3-18-9z" fill="#45433F"/>
<path transform="translate(1111,1179)" d="m0 0h16v1l5 1v1h-14l-2 7-2 2h-8v-1l7-1 3-5-4 2-11 2-11-6 3-2 5 1h11z" fill="#4F9ECB"/>
<path transform="translate(611,1585)" d="m0 0h13l10 5 8 9 3 7v7l-2 4-1-13-8-10-8-6h-18l-8 5-7 8-4 10-1 13-2-4 2-13 5-10 6-7 8-4z" fill="#655E31"/>
<path transform="translate(1248,1192)" d="m0 0 5 1 15 8 15 5 5 2v1l-9-1-13-5-14-8-4 1-9 7-11 5-14 4h-8l1-2 16-3 16-7 7-5z" fill="#4A4743"/>
<path transform="translate(950,1103)" d="m0 0h5l-5 5-16 10-15 8-16 6-10 3h-5l1-2 22-7 16-7 15-10z" fill="#524F4A"/>
<path transform="translate(600 1e3)" d="m0 0 1 2h2l6 23 11 30 5 11-1 3-6-12-8-20-8-23-2-8z" fill="#4EA2D2"/>
<path transform="translate(967,768)" d="m0 0 3 1-7 2v2l-15 2h-26l-2 7h-1v-6h-2l2-5h29z" fill="#EDD734"/>
<path transform="translate(215,1612)" d="m0 0h14l-2 2-20 4-15 1h-24v-1l41-5z" fill="#2E2D21"/>
<path transform="translate(798,1216)" d="m0 0h10l6 2v3l3 3 14 8 16 6v2l3 1h-6l-20-9-11-7-9-6-15-1v-1z" fill="#41403C"/>
<path transform="translate(839,1790)" d="m0 0h7l30 6 20 3 4 3h-8l-42-7-10-3z" fill="#342E23"/>
<path transform="translate(1259,1714)" d="m0 0 5 1 1 5-3 4-1 4h-3v2l-6 3-5-1 2-5h3l1-4 2-2 2-5z" fill="#161712"/>
<path transform="translate(382,1554)" d="m0 0 4 2 11 9 12 10 9 7 16 13 13 10 5 3-2 2-13-10-12-9-13-11-13-10-10-8-7-7z" fill="#58533A"/>
<path transform="translate(770,1578)" d="m0 0 9 2 21 8 9 3-1 3-10-2-32-11z" fill="#413A1E"/>
<path transform="translate(1949,1540)" d="m0 0 2 1-5 5-4 5 8 7 9 6v1h-5l-9-5-13-7 1-3 6-4 7-4z" fill="#2D2A1C"/>
<path transform="translate(1425,1643)" d="m0 0 4 1 3 9v7l-3 5-5 4-3 1h-9l-4-4 2-9 7-7 4-1-5 5-4 5v6l3 2 7-1 5-5 1-2v-11l-2-2h-3z" fill="#686134"/>
<path transform="translate(344,1524)" d="m0 0 3 1-1 4-10 9-7 8-6 5-9 11h-3l3-5h2l2-6 3-3 1-2h3l1-4 6-5h2l2-4h2v-3l4-1z" fill="#504B3F"/>
<path transform="translate(505,1407)" d="m0 0 4 2 12 11 8 7 13 13-3 1-11-9-12-12-8-7-3-3z" fill="#3A301A"/>
<path transform="translate(1642,1344)" d="m0 0 6 2 13 10 9 9v2l3 1v2l4 2-2 3-10-9-8-7-13-12z" fill="#443C21"/>
<path transform="translate(1986,1617)" d="m0 0 10 1v1l-41 5-11 1h-10v-1l-15-1v-1l31-1z" fill="#49432B"/>
<path transform="translate(948,1201)" d="m0 0 5 2 2 3-9-1-17 4h-7l-1 2-4-3h-15l-10-5 3-1 3 2 5 1h11v-2l4 1 6 2 15-2z" fill="#2F2F2D"/>
<path transform="translate(1371,1635)" d="m0 0h8l2 2 1 4 1 13v39l-5 5h-6l-6-4-1-2 4 2 7 2 4-3 1-6-1-42-2-7h-9v-2z" fill="#696233"/>
<path transform="translate(1885,1623)" d="m0 0h54v1l-8 2h-42z" fill="#27231E"/>
<path transform="translate(488,1463)" d="m0 0h6l8 6 1 2-4-2-7-4h-4v2h-2l-2 4-9 8-7 8-7 7-7 9-4 2 2-4 11-12 9-11 13-13z" fill="#676035"/>
<path transform="translate(1e3 760)" d="m0 0h26l13 4 7 4v5l-13-6-1-2-5-2h-37l4-2z" fill="#EBD746"/>
<path transform="translate(1271,1589)" d="m0 0h5l-1 4-28 9h-7l3-4z" fill="#36281A"/>
<path transform="translate(1063,1164)" d="m0 0 7 1 7 4 8 4 9 4 4 1 13 1 2 2-4 1h-11l-10-2-7-5-5-2-6-5-7-3z" fill="#282927"/>
<path transform="translate(553,1597)" d="m0 0 4 2h11l6-2 5 1 1 1v9l-4 4-2 1h-13l-10-3-9-7 1-2 5 4 10 5 14 1v-2l6-3v-7l-13 3-9-1z" fill="#6D6530"/>
<path transform="translate(448,1346)" d="m0 0 5 1 7 10 7 8 10 11-2 1-1 2-10-11-11-14-5-6z" fill="#433A23"/>
<path transform="translate(17,1484)" d="m0 0 14 8 9 6 13 8 6 4-2 1-23-12-22-13 4-1z" fill="#4D4326"/>
<path transform="translate(1134,1114)" d="m0 0 2 1-3 1v2l5-1 25-2 4-1h8l-3 2-18 3-23 1-13 5-6 1v-2l18-7z" fill="#524F4A"/>
<path transform="translate(1281,1689)" d="m0 0 2 4 7 24 1 9-5 3-6 1-3-2v-2l10-1-2-12-5-20z" fill="#443A1D"/>
<path transform="translate(1780,1474)" d="m0 0 9 2 12 3 24 7 1 2h-7l-30-8-9-3z" fill="#423C28"/>
<path transform="translate(717,1683)" d="m0 0h9l-1 5-7 4-10-1-4-4 3-2z" fill="#0B0E0E"/>
<path transform="translate(1388,1539)" d="m0 0 3 1-1 3-27 14h-2v-2l-4-1 25-12z" fill="#3D3422"/>
<path transform="translate(954,1217)" d="m0 0 24 1v1l-8 1 16 1v1l-9 1v3l2 2-10-2-9-5-9-1 3-1z" fill="#4EA2D2"/>
<path transform="translate(1e3 1270)" d="m0 0 5 1v2l5 2 2 3-6-1-4-3-9 3-18 4-10 1h-10l-13-2v-1h29l15-3 12-4h2z" fill="#4F4D48"/>
<path transform="translate(1139,1212)" d="m0 0 2 1-14 14-15 10-18 8-3 1-1 2-9-5v-1h7l3 1 15-6 11-6 12-9z" fill="#353432"/>
<path transform="translate(743,1684)" d="m0 0 3 1 2 6v8l-3 3h-5l-1-2 1-10 2-5z" fill="#0B0E0F"/>
<path transform="translate(1542,1546)" d="m0 0 3 2 2 7 2 5 3 3 2 4-1 4h-3v-2l-4-1-1-1-2-9-2-1v-9z" fill="#0B0E0F"/>
<path transform="translate(679,1616)" d="m0 0 1 2-15 33-5 10v9l1 2-4-2-1-1 1-9 10-21 8-16z" fill="#686134"/>
<path transform="translate(470,1503)" d="m0 0 2 1-11 12 2 5 11 10 8 7 2 4 4 2 1 5-6 6-4-1 4-2 3-3-1-4-13-13-11-9-2-3v-5z" fill="#6D6530"/>
<path transform="translate(2014,1592)" d="m0 0 5 1 26 13 3 2-10 1v-3l-9-3-16-8z" fill="#413B22"/>
<path transform="translate(1108,763)" d="m0 0 12 3 10 3-3 2 11 3-4 1-36-9 3-2 7 1z" fill="#E5D452"/>
<path transform="translate(1410,1182)" d="m0 0v3l-11 12-7 8-25 25-12 11-2-1 9-9 8-7 25-25 7-8z" fill="#524F4A"/>
<path transform="translate(1e3 1701)" d="m0 0 7 1 2 6 3 1-3 1-5-4-7 1-3 49h-1v-18l2-31 3-5z" fill="#514723"/>
<path transform="translate(1e3 1168)" d="m0 0h24v1l7 2 9 8 6 3-3 1-10-5-3-5-1-1h-18l-7-1z" fill="#4F84A1"/>
<path transform="translate(983,1627)" d="m0 0h95v1l-23 1-2 1h-9l-3-1-58-1z" fill="#696134"/>
<path transform="translate(494,1551)" d="m0 0h6l-3 2-7 3-1 5 2 2 14-2 9-3 4 1 1 5-2 19-2 1 1-16 1-7-14 3-13 1-3-3v-6l4-4z" fill="#6E662E"/>
<path transform="translate(1561,1525)" d="m0 0h10l8 3 6 5 3 6v3l-3 1-2-7-8-6v-2l-12-1-9 3-8 6-5 8-1-3 4-6 8-7z" fill="#72692B"/>
<path transform="translate(1100,1132)" d="m0 0h9l14 2 23-1-3 3-12 1h-15l-15-2-2-2z" fill="#4E4C47"/>
<path transform="translate(2029,1491)" d="m0 0 2 1-3 5-15 8-10 6-9 3 3-3 10-6 13-9z" fill="#332B1A"/>
<path transform="translate(1322,1106)" d="m0 0 5 1 5 3v2l16 1v1l-17 1-8-4-3 3h-3v2l-5 2-2 3-4-1 5-5 5-2 3-4h2z" fill="#4F89AA"/>
<path transform="translate(1178,642)" d="m0 0h10l12 1-2 2-6 2h-13l-10-1h-9l2-2z" fill="#FCEF8F"/>
<path transform="translate(1590,1548)" d="m0 0h5l3 4 1 6-3 10h-2l2-12-2-5-2-1-2 1-4 14-5 6-6 3h-5v-2l9-3 4-5 4-12z" fill="#786E26"/>
<path transform="translate(1355,1555)" d="m0 0h6v3l-24 11-2-1-1-3z" fill="#362C1D"/>
<path transform="translate(1750,1489)" d="m0 0v3l-5 7-4 1v3l-6 5h-2l-1 2-12 12h-3l2-4 12-12 5-3z" fill="#352A14"/>
<path transform="translate(942,1624)" d="m0 0h20l17 2v2l13 1v1h-14l-27-3-8-1z" fill="#444029"/>
<path transform="translate(1317,1662)" d="m0 0h4v3l5-1-1 3h3l3 8-2 6-2-4-5-6-3-1v-2h-6l1-2h4l-2-1z" fill="#1F130D"/>
<path transform="translate(1414,1617)" d="m0 0h11l6 3 4 7-1 3-4-5-2-4-6-1h-10l-10 4-9 7-1 2-2-1 3-5 11-7z" fill="#696233"/>
<path transform="translate(1181,962)" d="m0 0h6l-2 2-5 1-3-1-1 2-16 1-13-1v-2h-5v-1h19z" fill="#1F130D"/>
<path transform="translate(1338,1673)" d="m0 0 2 2 1 4-5 6-16 6-5-1-3-1v-2h2v-2l5-1v2h3v-2h11l4-3v-7z" fill="#1A110D"/>
<path transform="translate(1412,1619)" d="m0 0 4 1-10 4-11 7-4 6-1 7 2 3h4l3-8h1v7l-4 4-5-1-4-5 1-8 2-3h2l2-4 10-7z" fill="#696233"/>
<path transform="translate(518,1568)" d="m0 0 3 1 2-1 3 9-2 7h-6l-1-11z" fill="#0B0E0E"/>
<path transform="translate(107,1551)" d="m0 0m-4 1 4 1-5 5-20 11h-4l1-3 21-12z" fill="#302A1D"/>
<path transform="translate(1228,1100)" d="m0 0h2v3l-7 5-11 4h-18l2-2 10-1 9-3 10-4z" fill="#4E8FB4"/>
<path transform="translate(71,1518)" d="m0 0 5 2 12 7 16 10v3l-5-1-12-8-10-8-6-4z" fill="#392F1E"/>
<path transform="translate(274,1452)" d="m0 0 4 2v12l-1 17-1 5h-1l-2-19v-15z" fill="#1F130D"/>
<path transform="translate(686,1671)" d="m0 0h6l3 4 1 3 2 1v3l3 1-1 3-7-2-3-3v-2h-2l-2-4z" fill="#0B0E0F"/>
<path transform="translate(1457,1608)" d="m0 0 1 2v7l8 17 5 9 1 9-5 4-2-1 4-2v-7l-13-26-1-9z" fill="#6D6530"/>
<path transform="translate(675,1603)" d="m0 0 1 2-12 22-3 3-1-4 1-3h2l1-9 5-6 5-2z" fill="#382C17"/>
<path transform="translate(1369,1746)" d="m0 0h6l-3 3-28 11h-2v-2l-2-1 27-10z" fill="#373425"/>
<path transform="translate(348,1522)" d="m0 0 8 6 12 12 8 7 3 4-4-2-17-14-10-8z" fill="#5F593A"/>
<path transform="translate(1042,1293)" d="m0 0 31 9 5 1-1 3-8-1-23-7-5-2z" fill="#524F4A"/>
<path transform="translate(1451,1116)" d="m0 0h2l-2 4-4 5-13-1-3-1v-2z" fill="#76C4EF"/>
<path transform="translate(333,1400)" d="m0 0 4 2-13 11-11 9-3-1 2-4 13-10z" fill="#393223"/>
<path transform="translate(1143,1208)" d="m0 0 6 1 5 3v2l10 2h12l10-3 4-1-3 3-7 3-6 1h-8l-13-4-6-2-6-1z" fill="#524F4A"/>
<path transform="translate(941,1726)" d="m0 0 2 1-5 5v12l5 5 5 3v2l10 1v1h-9l-8-3-5-6-2-9 2-7z" fill="#4B3E1F"/>
<path transform="translate(1166,951)" d="m0 0 23 1v1l-5 1-1 3 2 1-15 2-2-2 4-5-6-1z" fill="#2F261E"/>
<path transform="translate(1406,1648)" d="m0 0 2 1-8 8-2 4v10h2l2 4 6 3h10l8-4 2 1-5 4-5 2h-7l-9-3-4-4-2-5v-9l4-6z" fill="#736A2A"/>
<path transform="translate(1612,1368)" d="m0 0 3 1-7 7-7 8-6 5-7 8-11 11-2-1 17-17 7-8 10-12z" fill="#655F37"/>
<path transform="translate(898,1800)" d="m0 0 19 2 32 4v1l-9 1-40-5v-2z" fill="#4A432E"/>
<path transform="translate(1496,1687)" d="m0 0 1 3-25 13-3-1 4-4 17-9z" fill="#413B28"/>
<path transform="translate(1302,1121)" d="m0 0 4 1-4 4-5 2-8 1 1 3 2 2-4-1-11-3 2-2h11v-2z" fill="#4F8BAD"/>
<path transform="translate(1122,1263)" d="m0 0 5 1-1 2 15 7 19 6 6 1-3 2-10-2-15-5-10-5-7-5z" fill="#524F4A"/>
<path transform="translate(996,1213)" d="m0 0h5v2l-12 5-3 1h-22v-1l21-3z" fill="#504D48"/>
<path transform="translate(1225,1682)" d="m0 0 4 1-8 4-4 4h-2l-1 4-2 4v18l4 9 1 4-4-4-3-7-1-5v-12l3-9 5-6z" fill="#666036"/>
<path transform="translate(705,1634)" d="m0 0h13l4 2h-15l-9 3-5 4-6 10-2 6-1 14h-1l-1-9 3-12 5-9 8-7z" fill="#676035"/>
<path transform="translate(582,1559)" d="m0 0 4 2 6 8 3 8-1 8-4 4h-7l-2-4-2-11-3-4 1-2 4 5 2 11v3l7-1 2-2v-9l-3-6-7-9z" fill="#6D652F"/>
<path transform="translate(482,1491)" d="m0 0 2 4 8 7 14 12 2 3-1 5-4 4-4-1 4-2 3-3-2-4-8-6-6-7-8-6z" fill="#6E652F"/>
<path transform="translate(1079,1270)" d="m0 0h4l1 3-22 3h-14l-1-2 26-3z" fill="#524F4A"/>
<path transform="translate(961,1222)" d="m0 0 4 1 11 4 11 2 14-1 8-1-4 3-11 2-12-1-15-4-8-3z" fill="#353532"/>
<path transform="translate(1307,1660)" d="m0 0h9v1l-9 2-9 6-5 7-2 7-1 10h-1v-14l4-9 5-6z" fill="#6E662E"/>
<path transform="translate(575,1565)" d="m0 0 6 4 4 13 1 1h5l-1-9-3-6 4 2 2 5v9l-3 3-5 1-2-1-3-14-5-6z" fill="#1F130D"/>
<path transform="translate(1291,1141)" d="m0 0h8l-2 2-25 5-7 1h-12v-1l35-6z" fill="#2F2F2D"/>
<path transform="translate(859,1607)" d="m0 0 9 1 23 5v2h-11l-13-3-8-3z" fill="#2E2C21"/>
<path transform="translate(1034,1224)" d="m0 0 4 2 10 8 13 6 18 5 2 2-13-2-14-5-14-9z" fill="#43413D"/>
<path transform="translate(1323,1148)" d="m0 0 7 1 8 2 20 1v2l-7 3-4-2-14-2-10-3z" fill="#514E49"/>
<path transform="translate(987,763)" d="m0 0 2 1-1 1 3 2-21 5h-7l-1-2 7-1 7-3z" fill="#BEAC31"/>
<path transform="translate(1200,1609)" d="m0 0h5l3 3-23 5h-5l3-2-2-2z" fill="#433927"/>
<path transform="translate(608,1587)" d="m0 0h18l8 6h-3l-7-4-14 1-3 2-6 2-8 9v-3l7-8z" fill="#1F130D"/>
<path transform="translate(1291,1582)" d="m0 0 5 1v2l-18 7h-3l-1-4z" fill="#39301D"/>
<path transform="translate(1142,1174)" d="m0 0h3v2h5v2l-16 4-17-1v-1l10-1 1-1 14-2z" fill="#4F84A0"/>
<path transform="translate(1153,1737)" d="m0 0 6 1 1 1v9h-7l-2-4v-5z" fill="#0B0E0F"/>
<path transform="translate(1518,1564)" d="m0 0h7l6 5v4l-9-1v-3h-5l-1-3h2z" fill="#0D0E0E"/>
<path transform="translate(1181,1167)" d="m0 0h9l-3 3-14 4h-11l2-1v-2l14-3z" fill="#3E3D3A"/>
<path transform="translate(1238,1115)" d="m0 0 5 1 10 6 6 3v2l6 1-4 1-6-1-12-7-3-2v-2h-2z" fill="#4E95BD"/>
<path transform="translate(1441,1603)" d="m0 0 4 2v2l-5-1v7l7 14v2l-3-1-9-17 1-4 2-3z" fill="#6E652F"/>
<path transform="translate(77,1567)" d="m0 0 1 2 2 1-16 8-11 6h-2l-1-3 17-8z" fill="#3E3624"/>
<path transform="translate(740,1686)" d="m0 0 1 4-1 10v2l6-2 3-2-1 4-3 4-7-1-3-2v-6h2z" fill="#362A15"/>
<path transform="translate(722,1680)" d="m0 0 5 1 3 2-1 5-5 4-5 2h-10l-4-2h12l8-5 1-4h-9l2-2z" fill="#3B3018"/>
<path transform="translate(653,1614)" d="m0 0 1 3-9 16-6 11-5 10v4h-2v-6l9-17z" fill="#6B6332"/>
<path transform="translate(874,1206)" d="m0 0 3 1-9 4h-4v2l-7 1-2-1v-2l-9-1v-1l23-2z" fill="#4EA2D2"/>
<path transform="translate(1569,1412)" d="m0 0v3l-8 7-7 7-11 9-3 2-2-2 9-7 8-8 10-8z" fill="#5D4F2A"/>
<path transform="translate(1126,770)" d="m0 0h9l15 3 8 1-1 2h-17l-9-3-5-2z" fill="#857C42"/>
<path transform="translate(579,1691)" d="m0 0 6 2 22 12 9 5-2 1-35-17z" fill="#453C2B"/>
<path transform="translate(1563,1526)" d="m0 0 10 1 2 2h-15l-8 4-8 8-3 6-1 10h-1v-13h2l2-5 6-7 9-5z" fill="#535048"/>
<path transform="translate(1537,1439)" d="m0 0h3l-1 3-11 9-9 7v-3l7-8z" fill="#392F1F"/>
<path transform="translate(1494,1581)" d="m0 0 2 1 1 9 2 6 2 1-2 2-2-2-3 1-2-6v-10h2z" fill="#0E0E0E"/>
<path transform="translate(1731,1558)" d="m0 0 2 1v2h2l9 12 9 8 1 3h-2l-1-2h-3l-7-8-9-9 1-2-2-1z" fill="#4D4941"/>
<path transform="translate(1592,1549)" d="m0 0 4 3 1 5-2 2-1-7-3 1-5 15-8 7h-10l-6-3 2-1 6 2 8-1 5-4 3-6 3-11z" fill="#524F4A"/>
<path transform="translate(176,1489)" d="m0 0h15l-1 3-11 1h-18l2-2z" fill="#413827"/>
<path transform="translate(842,1679)" d="m0 0 4 2 5 8-1 7-3 5-5-1-1-2 6-2-1-10-4-5z" fill="#362B16"/>
<path transform="translate(1553,1539)" d="m0 0h3l-2 4-2 8 2 5 2 1v3l-5-1-2-3-1-10 4-6z" fill="#676035"/>
<path transform="translate(294,1433)" d="m0 0m-2 1 2 1-4 5-5 5-5 4-2 5-5-2 3-5 13-10z" fill="#3C3224"/>
<path transform="translate(1093,1249)" d="m0 0 5 1 20 9 15 5v1l-14-1-10-6-16-8z" fill="#333330"/>
<path transform="translate(734,1645)" d="m0 0 3 3 3 8v7l-3 7-2-2-1-8 2-1z" fill="#3C3118"/>
<path transform="translate(1403,1530)" d="m0 0 4 1v3l-12 6-5 2-1-4z" fill="#3E3624"/>
<path transform="translate(662,1527)" d="m0 0 6 1 14 8-2 2-7-1-10-6z" fill="#352E1A"/>
<path transform="translate(2029,1483)" d="m0 0h11l-2 2-8 1v2l-15 1v-3z" fill="#252318"/>
<path transform="translate(1774,1462)" d="m0 0 4 1v11l-1 7h-2l-1-3v-9l-3 1-1-2 2-3h2z" fill="#1F1B16"/>
<path transform="translate(950,1103)" d="m0 0h5l-5 5-16 10-6 2v-2l14-9z" fill="#494743"/>
<path transform="translate(868,1795)" d="m0 0 22 3 8 2 2 2h-8l-25-4z" fill="#3A3628"/>
<path transform="translate(75,1615)" d="m0 0h10l33 3v1h-19l-19-1-5-1z" fill="#463C22"/>
<path transform="translate(1539,1583)" d="m0 0 7 2 1 2h-8l-2 13-4 6-5 3h-10l-6-3v-3l7 4h7l7-4 2-4 2-13z" fill="#524F4A"/>
<path transform="translate(612,1610)" d="m0 0 7 4 5 3 7 1-5 4-8-4-7-2-2-2v-3z" fill="#0C0E0E"/>
<path transform="translate(1470,1588)" d="m0 0 7 1v1l-11 1-7 4-4 2-2 5-4 5h-4l-2-3-4-1 5-1 4 2 4-5 6-7 7-3z" fill="#786E26"/>
<path transform="translate(1772,1550)" d="m0 0h1v13l-1 25-2 2-1-4v-12l2-12z" fill="#1C120D"/>
<path transform="translate(1214,1224)" d="m0 0 10 2 14 3 10 1v2h-13l-21-6z" fill="#333230"/>
<path transform="translate(1261,1781)" d="m0 0 4 1-6 2v2l-17 4h-6l2-3 20-5z" fill="#3B3723"/>
<path transform="translate(1105,1729)" d="m0 0 2 1v22l-5-1 1-8z" fill="#0B0E0F"/>
<path transform="translate(691,1645)" d="m0 0m-1 1 2 2-1 12-1 3-6 2 1-9z" fill="#0E0E0E"/>
<path transform="translate(315,1554)" d="m0 0 2 1-1 2h-2l-4 10-8 6-10 10v-3l6-7 7-6 4-6z" fill="#1F1711"/>
<path transform="translate(344,1524)" d="m0 0 3 1-1 4-10 9-1 2h-6l3-3h2l2-4h2v-3l4-1zm-16 16m-1 1 3 2h-4z" fill="#2B2019"/>
<path transform="translate(1081,1243)" d="m0 0 8 3 1-1 6-1v5l-5 1-19-3v-1h7l-3-2z" fill="#4EA0D0"/>
<path transform="translate(912,1207)" d="m0 0h5l4 3 1-1h7l-3 1 1 2 8 2 6 2-4 1-10-2-6-2-4-3-14-1v-1z" fill="#4EA2D2"/>
<path transform="translate(828,1112)" d="m0 0m-3 1h3v2l-10 2h-38l-3-2h34z" fill="#4EA2D2"/>
<path transform="translate(1949,1540)" d="m0 0 2 1-5 5-4 5 4 5-5-2-6-2-3 1 1-3 6-4 7-4z" fill="#625A36"/>
<path transform="translate(840,1602)" d="m0 0 11 2 9 2-1 3 7 1-4 1-26-7z" fill="#403C28"/>
<path transform="translate(272,1452)" d="m0 0h2v17l-1 11h-1l-1-9-10 1 3-2 6-2 1-9v-6z" fill="#78703D"/>
<path transform="translate(1312,1768)" d="m0 0v3l-21 6-4-1 6-3 7-3z" fill="#2C2820"/>
<path transform="translate(1029,1628)" d="m0 0h12l3 1h10v2h-44v-1l19-1z" fill="#1F130D"/>
<path transform="translate(1772,1601)" d="m0 0 26 7v1h-6l1 2-10-3-12-4z" fill="#403B2C"/>
<path transform="translate(1577,1533)" d="m0 0 6 3 1 5-3 2-5-1-4-6z" fill="#0B0E0E"/>
<path transform="translate(833,1717)" d="m0 0 1 3-3 4-5 2 4 2-1 1h-9l-3-3 1-4v2l9-2z" fill="#0B0E0F"/>
<path transform="translate(1261,1652)" d="m0 0h8l3 3v3h-2l-1-2-7 1v15l-2-4-1-3v-11z" fill="#483E21"/>
<path transform="translate(895,1229)" d="m0 0h35l-2 2-8 1h-11l-11-1z" fill="#2B2B29"/>
<path transform="translate(624,1586)" d="m0 0 5 1 6 4 7 8 3 7v7l-2 4-1-13-8-10-8-6z" fill="#6F662E"/>
<path transform="translate(1186,1110)" d="m0 0 4 1-14 10-10 6-2-1 16-12v-2z" fill="#484642"/>
<path transform="translate(701,1652)" d="m0 0 1 3 12 3 7 3 4-1v-8l2 2 1 9-7 1-20-8z" fill="#696233"/>
<path transform="translate(54,1612)" d="m0 0h10l15 2-4 1v2l-12-1-11-2z" fill="#3B3422"/>
<path transform="translate(1293,1225)" d="m0 0h6l-1 2-19 6h-7l1-2 10-3z" fill="#2A2B29"/>
<path transform="translate(1196,1205)" d="m0 0 3 1v2h20v1l-17 3h-7l-1-3-3-1z" fill="#4EA2D2"/>
<path transform="translate(893,1087)" d="m0 0h5l1 3-19 5-3-1 9-3-8-1 1-2h10z" fill="#4EA2D2"/>
<path transform="translate(1713,1542)" d="m0 0 3 1v2l3 1 1 3 3 1v3l4 1v3l4 1v4l3 1-3 1-7-7-7-8-4-4z" fill="#332818"/>
<path transform="translate(1342,1200)" d="m0 0 3 1-1 4-9 7-23 11-3-1 23-11 11-8-3-2z" fill="#4EA2D2"/>
<path transform="translate(1111,1179)" d="m0 0h16v1l5 1v1h-14l-2 7-2 2h-8v-1l7-1 3-5-4-1z" fill="#50A4D3"/>
<path transform="translate(1173,1178)" d="m0 0h24l-1 3-2 1-17 1-8-1v-1l23-1h-19z" fill="#4EA2D2"/>
<path transform="translate(1301,69)" d="m0 0h6l-3 11-4-2-3-3 2-5z" fill="#695C38"/>
<path transform="translate(1394,1633)" d="m0 0 2 1-2 4h3l-1 7-2-1-1 3-3-1-1-6 3-6z" fill="#0E0E0E"/>
<path transform="translate(1919,1622)" d="m0 0h40l-4 2-11 1h-10v-1l-15-1z" fill="#4D4426"/>
<path transform="translate(1338,1650)" d="m0 0 5 1 22 22 1 3-4-2-7-8-13-13-5 1h-3z" fill="#6E652F"/>
<path transform="translate(1480,1617)" d="m0 0 4 1 8 15 2 2 4 2-5 1-6-7z" fill="#696233"/>
<path transform="translate(1544,1605)" d="m0 0v3l-9 8-9 4h-11l-4-1 1-2h14l10-5z" fill="#786E26"/>
<path transform="translate(0,1476)" d="m0 0 9 1 5 1v2l3 1-5 1v3l-5-2-7-4z" fill="#3E3B25"/>
<path transform="translate(519,1420)" d="m0 0 5 2 18 18-3 1-9-7-2-5-9-8z" fill="#302B21"/>
<path transform="translate(1233,1690)" d="m0 0h7l6 4v2l3 1 1 5-3 2-4-1 3-1-1-4-3-4-3-1h-8l-5 2 4-4z" fill="#6A6232"/>
<path transform="translate(1338,1652)" d="m0 0 5 1v3h-3l-1 5 4 5-1 2-7-7-1-6z" fill="#1B120D"/>
<path transform="translate(1177,1614)" d="m0 0h7l-1 2h-3v2l-4 1h-14l3-3z" fill="#332C1F"/>
<path transform="translate(1541,1605)" d="m0 0 2 1-5 5-9 6-3 1h-14l-8-5 2-1 8 4h10l9-4 6-5h2z" fill="#524F4A"/>
<path transform="translate(1957,1565)" d="m0 0 6 1 21 11 5 2-1 2-6-2-17-9-8-4z" fill="#4F4931"/>
<path transform="translate(1593,1625)" d="m0 0 2 1-12 9-8 5-3-2 18-12z" fill="#5E583C"/>
<path transform="translate(1813,1614)" d="m0 0h12l9 3v1h-17l-4-2z" fill="#292418"/>
<path transform="translate(238,1477)" d="m0 0h7l-1 2-10 3-10 2-8 1 3-3z" fill="#2A2017"/>
<path transform="translate(448,1346)" d="m0 0 5 1 7 10 2 4-3 1-7-9-4-5z" fill="#433827"/>
<path transform="translate(710,1552)" d="m0 0 5 1 17 8-4 2-6-2-11-5 1-2z" fill="#43402C"/>
<path transform="translate(824,1230)" d="m0 0 5 1 15 6 3 1v2l3 1h-6l-20-9z" fill="#31312F"/>
<path transform="translate(1043,1151)" d="m0 0 5 2 2 4 10 4v2l3 1h-7l-6-4-7-6z" fill="#4E8FB3"/>
<path transform="translate(690,1599)" d="m0 0 7 1 2 2v9h-1l-1-8-3-2-4 1-4 8-1 3h-2v2l-3 1 2-6 5-8z" fill="#4A4124"/>
<path transform="translate(770,1578)" d="m0 0 9 2 8 3-4 1-5 1-12-4z" fill="#4B4628"/>
<path transform="translate(382,1554)" d="m0 0 4 2 22 18-2 2-12-10-8-7z" fill="#665F3A"/>
<path transform="translate(66,1489)" d="m0 0h18l10 2v1h-19l-9-1z" fill="#363221"/>
<path transform="translate(1288,1208)" d="m0 0 24 1v3h-12l-14-2z" fill="#524F4A"/>
<path transform="translate(863,1100)" d="m0 0 2 1-5 4-9 4-7 4-2-1 4-5z" fill="#504D49"/>
<path transform="translate(1026,943)" d="m0 0h6l6 3 5 1-4 4-9-3-4-3z" fill="#15100D"/>
<path transform="translate(1467,1701)" d="m0 0 3 1v2l-19 9-3-2 16-8z" fill="#554C3A"/>
<path transform="translate(1173,1292)" d="m0 0 4 2-16 7-5 1-3-2 15-6z" fill="#504D49"/>
<path transform="translate(1125,1265)" d="m0 0 17 2-4 2 4 3 5 2-3 1-16-7z" fill="#4EA2D2"/>
<path transform="translate(1107,1625)" d="m0 0 4 1-5 2-7 1h-12l-3-2 5-1z" fill="#251D15"/>
<path transform="translate(1452,1503)" d="m0 0 1 3-11 7-6 2v-3l12-8z" fill="#2F291D"/>
<path transform="translate(2010,1487)" d="m0 0 9 1h7v1l-23 4h-6v-1l10-1v-2h-5v-1z" fill="#564D2A"/>
<path transform="translate(1074,1304)" d="m0 0h10l7 2v2h12v1h-15l-10-2z" fill="#3E3D3A"/>
<path transform="translate(814,1218)" d="m0 0 27 3-1 3h-8l-18-4z" fill="#524F4A"/>
<path transform="translate(1102,1135)" d="m0 0 29 2-1 2h-15l-13-2z" fill="#4EA2D2"/>
<path transform="translate(1390,1738)" d="m0 0h5v2l-20 7-3-2z" fill="#413927"/>
<path transform="translate(1418,1622)" d="m0 0h7l4 2 1 3h-8v3h-2v-2l-4-2v-3z" fill="#0B0E0E"/>
<path transform="translate(1513,1561)" d="m0 0h11l3 2h-10l-7 2-7 4-6 6-2-1 4-5 9-6z" fill="#524F4A"/>
<path transform="translate(1096,1155)" d="m0 0 6 1 3 2v2l4 1-6 1-3-2h-9l2-4z" fill="#4F86A5"/>
<path transform="translate(1187,1108)" d="m0 0 8 1h11v1l-6 1h5l-1 2-18 1 3-3-3-2z" fill="#4EA2D2"/>
<path transform="translate(782,1775)" d="m0 0 8 1 22 6-3 2-12-3-13-4z" fill="#423C28"/>
<path transform="translate(1324,1674)" d="m0 0 4 3-1 5-21 7-4-1v-8h1l1 6 6-1 15-5z" fill="#6A6233"/>
<path transform="translate(504,1646)" d="m0 0 5 2 16 10-1 2-5-2-14-9z" fill="#57523D"/>
<path transform="translate(1205,1148)" d="m0 0h5l-3 2 4 1-6 2-6 1-14-1v-1l14-2z" fill="#4F809B"/>
<path transform="translate(1094,1123)" d="m0 0m-16 1h16l1 4h-17l-4-2h7z" fill="#4EA2D2"/>
<path transform="translate(1114,766)" d="m0 0 9 1 7 2-3 2 11 3-4 1-12-3v-3l-8-1z" fill="#B8AC54"/>
<path transform="translate(1750,1489)" d="m0 0v3l-5 7-4 1v3l-6 5h-2l-1 2v-3z" fill="#1F130D"/>
<path transform="translate(1104,1238)" d="m0 0h2v2l-15 6-1 2-9-5v-1h7l3 1z" fill="#413F3C"/>
<path transform="translate(1080,1705)" d="m0 0h6l3 2-1 5-2 1-7-1z" fill="#0B0E0F"/>
<path transform="translate(277,1597)" d="m0 0 3 2-12 5h-13l4-2z" fill="#463E2E"/>
<path transform="translate(2029,1491)" d="m0 0 2 1-3 5-9 5h-2l1-5z" fill="#423D2E"/>
<path transform="translate(586,1474)" d="m0 0 8 6 5 4-4 2-12-9 3-1z" fill="#50451E"/>
<path transform="translate(1064,763)" d="m0 0 6 1h5l-4 2-11 4-6-1 5-4z" fill="#D6C33A"/>
<path transform="translate(561,1682)" d="m0 0 5 1 13 7 1 3-5-1-14-8z" fill="#2F2D26"/>
<path transform="translate(1047,1627)" d="m0 0h31v1l-23 1-2 1h-9l-3-2z" fill="#524F4A"/>
<path transform="translate(669,1589)" d="m0 0 8 1 2 2-1 9-2 2 1-10-7-2-5 6-5 8-1-2 8-13z" fill="#6E652F"/>
<path transform="translate(1517,1570)" d="m0 0 8 2-1 2h-10l-6 3-3 3v-5l4-3z" fill="#655F37"/>
<path transform="translate(305,1569)" d="m0 0 2 1-7 8-8 9-2-4 8-7z" fill="#26251D"/>
<path transform="translate(549,1540)" d="m0 0h5v2l-19 3-2 2-4-1v-3l10-2z" fill="#635D39"/>
<path transform="translate(1261,1199)" d="m0 0 5 1 13 5 9 3v1l-9-1-13-5-5-3z" fill="#333330"/>
<path transform="translate(1114,1184)" d="m0 0h2l-1 4-2 2h-12l1-3z" fill="#2E2E2C"/>
<path transform="translate(698,1662)" d="m0 0h7l7 4 13 6-3 1-15-6-9-4z" fill="#696233"/>
<path transform="translate(597,1637)" d="m0 0 5 2 6 3 6 1 13-1-3 3-7 1-13-3-7-5z" fill="#6D6133"/>
<path transform="translate(662,1602)" d="m0 0v3l-9 17h-2l3-10 4-7z" fill="#332814"/>
<path transform="translate(514,1558)" d="m0 0 4 1 1 5-2 19-2 1 1-16 1-7h-7z" fill="#63593C"/>
<path transform="translate(773,1084)" d="m0 0 2 1-7 4-18 6-10 1 4-2 15-4z" fill="#524F4A"/>
<path transform="translate(1124,959)" d="m0 0h15l2 3h-20z" fill="#0E0E0E"/>
<path transform="translate(1045,491)" d="m0 0h1l1 18-1 4-3-1v-10z" fill="#FBE753"/>
<path transform="translate(1e3 1748)" d="m0 0 1 4h2l1 4 2-1v4l-2 1h-8l-2-2h5z" fill="#3B2718"/>
<path transform="translate(1510,1678)" d="m0 0 2 1-5 4-3 3-5 3h-4l-4-1z" fill="#4F472F"/>
<path transform="translate(1749,1581)" d="m0 0 3 1v2l4 2 3 4 7 7-1 3-12-12-4-5z" fill="#322820"/>
<path transform="translate(728,1561)" d="m0 0 8 2 7 3v3l-7-1-8-4z" fill="#2F2B1C"/>
<path transform="translate(615,1498)" d="m0 0 7 1 8 6-4 2-11-7z" fill="#4C482D"/>
<path transform="translate(1145,1156)" d="m0 0 4 1 7 3-3 1-5 1-2-2-6 1h-9l3-2h10z" fill="#4F7A90"/>
<path transform="translate(1160,1617)" d="m0 0 10 2v1l-17 3h-7l3-2 6-1v-2z" fill="#4F432A"/>
<path transform="translate(37,1609)" d="m0 0 12 1 7 1-4 3-14-1 1-2z" fill="#4C4329"/>
<path transform="translate(1271,1589)" d="m0 0h5l-1 4-9 3h-3l-1-4z" fill="#31291D"/>
<path transform="translate(650,1519)" d="m0 0 5 2 9 5-2 4-12-7z" fill="#484323"/>
<path transform="translate(470,1503)" d="m0 0 2 1-11 12 2 5 6 6-1 2-7-6-2-3v-5z" fill="#6E662F"/>
<path transform="translate(274,1452)" d="m0 0 4 2v12l-4-1-1-11z" fill="#16100D"/>
<path transform="translate(1222,1148)" d="m0 0 14 7 12 5-4 1-12-5-10-5z" fill="#4EA2D2"/>
<path transform="translate(1322,1689)" d="m0 0h3v2l-10 3-7 1 2 6 2 4-3-1v-2h-2l-1-7 6-3z" fill="#686134"/>
<path transform="translate(23,1608)" d="m0 0h14v2l6 1v1h-10l-8-1v-2z" fill="#2E2918"/>
<path transform="translate(91,1559)" d="m0 0 2 4-11 6h-4l1-3z" fill="#362F1F"/>
<path transform="translate(51,1485)" d="m0 0 7 1 16 2v1l-16 1-6-1 1-3z" fill="#46422B"/>
<path transform="translate(1780,1474)" d="m0 0 18 4v2h-9l-9-3z" fill="#2A2717"/>
<path transform="translate(542,1439)" d="m0 0 8 6 2 3-2 3-10-9z" fill="#3B311A"/>
<path transform="translate(1441,1652)" d="m0 0h3l2 3v5l-4 2-3-3z" fill="#0B0E0F"/>
<path transform="translate(1464,1634)" d="m0 0 3 1 4 8 1 9-5 4-2-1 4-2v-7l-5-10z" fill="#71682B"/>
<path transform="translate(1649,1580)" d="m0 0 2 1-6 7-6 5-7 2 5-5 11-9z" fill="#6B6331"/>
<path transform="translate(1739,1503)" d="m0 0 2 1-19 19-2-1 8-9 5-5z" fill="#524F4A"/>
<path transform="translate(373,1367)" d="m0 0h6l-5 5-9 7-1-4z" fill="#403720"/>
<path transform="translate(821,1194)" d="m0 0 5 2 4 3v2l5 2-4 1-5-2-6-7z" fill="#4E94BB"/>
<path transform="translate(727,1097)" d="m0 0h7l-3 2-9 2-13-1-1-2h9z" fill="#524F4A"/>
<path transform="translate(1158,774)" d="m0 0h9v2h6v1l-13 1-13-1 4-2h6z" fill="#CBBA43"/>
<path transform="translate(524,1659)" d="m0 0 4 1 13 8v1l-7-1-10-7z" fill="#443C28"/>
<path transform="translate(1317,1662)" d="m0 0h4l2 4 2 2v3l-6-1v-2h-6l1-2h4l-2-1z" fill="#0C0E0E"/>
<path transform="translate(1370,1647)" d="m0 0 5 4 1 3-3 6-1 5h-1z" fill="#1F130D"/>
<path transform="translate(923,1621)" d="m0 0h10l16 2v1l-13 1-13-3z" fill="#333025"/>
<path transform="translate(517,1579)" d="m0 0h1v5h6l2-5h1v6l-3 3-7-1-1-4z" fill="#261B11"/>
<path transform="translate(1769,1566)" d="m0 0h1l-1 20-2 11-5-2 1-2h3z" fill="#524F4A"/>
<path transform="translate(1408,1730)" d="m0 0 1 4-12 5-5-1 3-2z" fill="#464031"/>
<path transform="translate(1412,1619)" d="m0 0 4 1-10 4-11 7-4 4 2-5 9-7z" fill="#524F4A"/>
<path transform="translate(2e3 1615)" d="m0 0h15l-2 2-8 1h-13l2-2z" fill="#2B291D"/>
<path transform="translate(1593,1548)" d="m0 0 4 2 2 5-2 11-1 2h-2l2-12-2-5z" fill="#756C28"/>
<path transform="translate(418,1330)" d="m0 0 1 4-11 9-1-3 8-8z" fill="#362A1F"/>
<path transform="translate(1290,1127)" d="m0 0 3 1-4 1 1 3 2 2-4-1-11-3 2-2z" fill="#4B4944"/>
<path transform="translate(200,1486)" d="m0 0 3 1 4 2-16 2v-2h-6v-1z" fill="#4F4628"/>
<path transform="translate(1778,1468)" d="m0 0 4 4 10 4-3 1-9-3v2h-2v12h-1v-14z" fill="#736B35"/>
<path transform="translate(1117,1160)" d="m0 0h6l5 3 4 4 4 2-3 1-16-9z" fill="#484642"/>
<path transform="translate(1357,1109)" d="m0 0 6 1 4 2 2 4-5-1-5-2-7-1 2-2z" fill="#524F4A"/>
<path transform="translate(1548,1573)" d="m0 0 16 8 12 1v1h-14l-10-5z" fill="#524F4A"/>
<path transform="translate(71,1518)" d="m0 0 5 2 12 7 3 3h-2l-1 2-11-9-6-4z" fill="#4F472F"/>
<path transform="translate(1218,1727)" d="m0 0 4 2 1 3 6 4v1l-7-1-5-5z" fill="#322814"/>
<path transform="translate(1570,1639)" d="m0 0h5l-5 5-10 7-2-1 5-4 5-5z" fill="#4F4A3A"/>
<path transform="translate(1371,1635)" d="m0 0h8l2 2 1 4v13h-1l-2-15-1-1h-9v-2z" fill="#6E662F"/>
<path transform="translate(1150,1619)" d="m0 0h6l-1 2-9 2h-10l-1-2z" fill="#241F18"/>
<path transform="translate(1495,1604)" d="m0 0 4 2 7 8 5 3-3 1-6-4-7-9z" fill="#71692B"/>
<path transform="translate(1239,1599)" d="m0 0 3 1-1 1 2 2-11 3-3-1h2l-1-3z" fill="#413924"/>
<path transform="translate(429,1592)" d="m0 0 4 2 10 8 9 6-2 2-13-10-8-6z" fill="#5F5A3C"/>
<path transform="translate(743,1567)" d="m0 0 9 3 3 2h-3v2l-5-1-7-3 3-1z" fill="#353120"/>
<path transform="translate(413,1332)" d="m0 0 2 1-7 7-2 5-4 2-1-4z" fill="#796F2E"/>
<path transform="translate(422,1325)" d="m0 0 4 1 2-1-1 3-6 5h-2l-1-2h-3z" fill="#68603A"/>
<path transform="translate(1452,1114)" d="m0 0h3l-1 5h-3l2-3-18 5-4-1z" fill="#4EA2D2"/>
<path transform="translate(1132,1113)" d="m0 0h2v2l-8 5-11 4-3-1 8-4z" fill="#4EA2D2"/>
<path transform="translate(862,1692)" d="m0 0 2 1-4 9h-2v4l-4 3 1-6 5-8z" fill="#41371C"/>
<path transform="translate(1225,1682)" d="m0 0 4 1-8 4-4 4h-2l-1 4-3 6-1-3 4-8 9-7z" fill="#686134"/>
<path transform="translate(1436,1662)" d="m0 0 12 1-1 2-5 1-6-2-2 4-5 6-2-1 4-5z" fill="#686134"/>
<path transform="translate(1877,1622)" d="m0 0h16v1l-6 1v1h-9l-11-1v-1z" fill="#51492E"/>
<path transform="translate(185,1616)" d="m0 0h8l-1 3h-24v-1z" fill="#615B3B"/>
<path transform="translate(542,1601)" d="m0 0 11 7 5 2 13 1v1h-15l-8-4-6-5z" fill="#686134"/>
<path transform="translate(1492,1474)" d="m0 0 3 1-4 5-4 3h-6l4-4z" fill="#2D261A"/>
<path transform="translate(831,1203)" d="m0 0 6 2 9 4 7 1 1 3-7-1-12-5z" fill="#4E4B47"/>
<path transform="translate(1307,1660)" d="m0 0h9v1l-9 2-9 6-5 5 2-5 6-5 3-3z" fill="#595443"/>
<path transform="translate(1410,1618)" d="m0 0h2v2l-10 4-9 7-1 2-2-1 3-5 11-7z" fill="#786E26"/>
<path transform="translate(234,1608)" d="m0 0 4 1-4 4-7 1v-1l-6-1v-1z" fill="#4A452C"/>
<path transform="translate(14,1599)" d="m0 0 5 1-3 2h-2v2h-4l1 3h-6v-3z" fill="#373228"/>
<path transform="translate(28,1592)" d="m0 0 2 3-9 5h-5v-2z" fill="#2E2923"/>
<path transform="translate(1594,1568)" d="m0 0v3l-7 7-7 5-3-1 5-4 8-6z" fill="#6E652F"/>
<path transform="translate(812,1220)" d="m0 0 5 4 9 5-4 2-12-8 1-2z" fill="#42413D"/>
<path transform="translate(955,1206)" d="m0 0 10 3 15 5-4 1-12-3-9-5z" fill="#4C4A45"/>
<path transform="translate(933,635)" d="m0 0h25v1l-13 1h-18v-1z" fill="#FEFEFE"/>
<path transform="translate(1199,1795)" d="m0 0 8 1v1l-13 2h-9l2-2z" fill="#413D2D"/>
<path transform="translate(451,1609)" d="m0 0 4 1 13 10v2l-4-2-11-8z" fill="#423E30"/>
<path transform="translate(1200,1609)" d="m0 0h5l3 3-9 2h-4v-2l-3-1z" fill="#433B29"/>
<path transform="translate(2039,1608)" d="m0 0h9v3l-6 1h-8l3-3z" fill="#1A1A18"/>
<path transform="translate(582,1559)" d="m0 0 4 2 6 8 3 8v5l-2-4-4-9-7-9z" fill="#6E662E"/>
<path transform="translate(473,1501)" d="m0 0h3l5 7 11 9 1 2-4-2-11-9-6-6z" fill="#6A6233"/>
<path transform="translate(1461,1495)" d="m0 0 2 1-2 2 1 2-9 5-3-2z" fill="#463D22"/>
<path transform="translate(1502,1466)" d="m0 0 2 1-5 7-5 4-2-1 2-2v-3z" fill="#443D25"/>
<path transform="translate(479,1379)" d="m0 0 7 6 7 7-2 2-13-13z" fill="#514D45"/>
<path transform="translate(1119,1306)" d="m0 0h12l-1 2-3 1h-13v-2z" fill="#2F2F2D"/>
<path transform="translate(1188,1280)" d="m0 0h8l-1 4h-3l2-2-5 1h-9l-9-1v-1h14z" fill="#4EA2D2"/>
<path transform="translate(1291,1141)" d="m0 0h8l-2 2-13 3-7-1v-1z" fill="#3B3A37"/>
<path transform="translate(1321,1764)" d="m0 0 4 2-4 2-8 2-5-1 3-2z" fill="#3C3523"/>
<path transform="translate(728,1686)" d="m0 0v3l-6 4-3 1h-10l-4-2h12l10-5z" fill="#5F5223"/>
<path transform="translate(1096,1680)" d="m0 0h9l1 1v18h-1l-1-17h-10z" fill="#3E2718"/>
<path transform="translate(1499,1622)" d="m0 0h2l3 6v6l-5 4-4-1 5-3 1-5z" fill="#70672D"/>
<path transform="translate(1214,1606)" d="m0 0 4 1-2 2h-3v2h-9l1-3z" fill="#322920"/>
<path transform="translate(546,1543)" d="m0 0h7l1 4-3 3-3-1z" fill="#0B0E0F"/>
<path transform="translate(383,1359)" d="m0 0 3 1-6 7h-5l-1 2v-3z" fill="#23221F"/>
<path transform="translate(871,1090)" d="m0 0h19l-4 2-11 2-1-2z" fill="#524F4A"/>
<path transform="translate(656,1084)" d="m0 0h8l6 3 1 3-6-1-9-4z" fill="#524F4A"/>
<path transform="translate(839,1790)" d="m0 0h7l9 2v2h-9l-7-3z" fill="#24221A"/>
<path transform="translate(972,1742)" d="m0 0 2 1-1 5-1 1h-8l5-5z" fill="#0B0E0E"/>
<path transform="translate(1281,1689)" d="m0 0 2 4 3 10v4h-2l-4-13z" fill="#433919"/>
<path transform="translate(1605,1614)" d="m0 0 2 1-6 7-4 3-6 1 4-4z" fill="#6E662F"/>
<path transform="translate(245,1607)" d="m0 0h6l-1 2-12 3h-3l1-3z" fill="#25251D"/>
<path transform="translate(443,1512)" d="m0 0 1 2-1 3 3 4 6 7 1 2-4-2-7-7-2-5z" fill="#685E33"/>
<path transform="translate(642,1513)" d="m0 0 8 5 1 4-4-1-7-5 2-1z" fill="#3B3520"/>
<path transform="translate(1722,1413)" d="m0 0 7 6 5 5v2l-4-2-9-8z" fill="#3E3625"/>
<path transform="translate(1098,1179)" d="m0 0h13l2 2-4 1h-11z" fill="#3A3936"/>
<path transform="translate(1160,954)" d="m0 0h10l-2 4h-9v-3z" fill="#524F4A"/>
<path transform="translate(1021,762)" d="m0 0h7l6 3-3 1-4-1-21-1v-1z" fill="#AC9C2D"/>
<path transform="translate(868,1795)" d="m0 0 15 2 3 2h-13l-6-1z" fill="#3A3422"/>
<path transform="translate(1064,1746)" d="m0 0h3l4 5-2 4-4-3v-2h-2z" fill="#0B0E0F"/>
<path transform="translate(1441,1603)" d="m0 0 4 2v2l-5-1v9l-3-3v-7z" fill="#565246"/>
<path transform="translate(560,1554)" d="m0 0h14l8 4 2 4-5-2-6-4-13-1z" fill="#5C5740"/>
<path transform="translate(1030,1170)" d="m0 0 6 4 5 5 6 3-3 1-10-5-3-5z" fill="#4EA2D2"/>
<path transform="translate(1252,1122)" d="m0 0 7 3v2l6 1-4 1-6-1-4-2z" fill="#4F85A3"/>
<path transform="translate(1187,1713)" d="m0 0 1 2 5 1 10 10-1 2-8-7v-2l-5-2-2-1z" fill="#686134"/>
<path transform="translate(489,1637)" d="m0 0 5 1 10 7v2l-5-2-10-6z" fill="#423D33"/>
<path transform="translate(1372,1637)" d="m0 0h6l2 2v6l-2-3-7-2-1 2 1-4z" fill="#1F130D"/>
<path transform="translate(1470,1489)" d="m0 0 2 1-2 2 1 2-8 5-3-1 5-5z" fill="#382F20"/>
<path transform="translate(1551,1427)" d="m0 0h2l-2 4-10 9-3-2 9-7z" fill="#494232"/>
<path transform="translate(494,1394)" d="m0 0 12 12-2 3-5-5-3-5-3-4z" fill="#484232"/>
<path transform="translate(1128,1118)" d="m0 0m-2 1h2l-1 3-14 4-1-2z" fill="#504D48"/>
<path transform="translate(1235,1788)" d="m0 0 2 1 1 2-13 2-4-2z" fill="#3E3A2A"/>
<path transform="translate(1242,1786)" d="m0 0h8v2l-8 2h-6l2-3z" fill="#24231C"/>
<path transform="translate(1548,1590)" d="m0 0h2v7l-4 8-3 1 4-10z" fill="#71682C"/>
<path transform="translate(1956,1495)" d="m0 0h10l6 1v1l-10 1h-12v-1l6-1z" fill="#6D6530"/>
<path transform="translate(443,1337)" d="m0 0 3 1 5 7-4 2-4-5z" fill="#5E593E"/>
<path transform="translate(1150,1301)" d="m0 0h6v2l-7 2h-8v-2z" fill="#2E2E2C"/>
<path transform="translate(1143,1208)" d="m0 0 6 1 5 3v1h-7l-6-1z" fill="#4F7D95"/>
<path transform="translate(785,1074)" d="m0 0 2 1-1 3-9 6-2-1 5-6z" fill="#504D48"/>
<path transform="translate(898,1800)" d="m0 0 19 2-4 2-13-1v-2z" fill="#4C452B"/>
<path transform="translate(949,1735)" d="m0 0 1 4 2 5 2 1 10 1v1l-12 1-3-3-1-8z" fill="#574D22"/>
<path transform="translate(1416,1726)" d="m0 0 4 2-9 5-3-1 4-4z" fill="#363227"/>
<path transform="translate(1791,1608)" d="m0 0 11 1v2l2 1-1 1-8-1z" fill="#221F19"/>
<path transform="translate(492,1509)" d="m0 0 5 4 1 4-1 2-4-2-2-5z" fill="#0B0E0F"/>
<path transform="translate(482,1491)" d="m0 0 2 4 8 7 2 4-9-6-3-3z" fill="#6C6431"/>
<path transform="translate(1798,1479)" d="m0 0 9 2 3 2h-10l-8-2v-1z" fill="#383321"/>
<path transform="translate(269,1470)" d="m0 0 3 1-1 2-10 3-4-1 3-1-2-2z" fill="#433B24"/>
<path transform="translate(958,1706)" d="m0 0m-3 1 5 1-10 8-2-1 5-7z" fill="#40351A"/>
<path transform="translate(659,1661)" d="m0 0h1l1 7 6 1 1-3 1 2-3 4h-5l-2-2z" fill="#1F130D"/>
<path transform="translate(1848,1619)" d="m0 0 15 1v1l-5 1-15-1v-1z" fill="#534C35"/>
<path transform="translate(638,1597)" d="m0 0 4 2 3 7v7l-2 4-1-13-4-5z" fill="#686134"/>
<path transform="translate(1635,1593)" d="m0 0 2 1-7 6-5 3-1-3 7-5z" fill="#5F593D"/>
<path transform="translate(2e3 1489)" d="m0 0h10v2l-13 2v-3z" fill="#29211A"/>
<path transform="translate(1507,1462)" d="m0 0h4l-2 4-7 5v-3z" fill="#352F21"/>
<path transform="translate(1668,1364)" d="m0 0 2 1v2l3 1v2l4 2-2 3-8-7z" fill="#534820"/>
<path transform="translate(438,1331)" d="m0 0 4 2 2 4v3l-4-2-3-3z" fill="#4E462D"/>
<path transform="translate(1223,1207)" d="m0 0m-4 1 4 1-9 3h-8l1-2z" fill="#524F4A"/>
<path transform="translate(1191,1209)" d="m0 0h3l1 4h3l1 3-6-1-4-3v-2z" fill="#1D1F1E"/>
<path transform="translate(772,1702)" d="m0 0 1 4-1 5 2 6-5-1 1-9z" fill="#3E301C"/>
<path transform="translate(1496,1687)" d="m0 0 1 3-9 5-4-1 5-2 1-3z" fill="#302A20"/>
<path transform="translate(840,1602)" d="m0 0 11 2-1 3-10-2-4-2z" fill="#474228"/>
<path transform="translate(463,1489)" d="m0 0v3l-9 11-4 2 2-4z" fill="#72692B"/>
<path transform="translate(1145,773)" d="m0 0 13 1-1 2h-17v-1l5-1z" fill="#8F8327"/>
<path transform="translate(653,1614)" d="m0 0 1 3-8 15-1-4z" fill="#676035"/>
<path transform="translate(559,1553)" d="m0 0h11v1l-10 1-10 5-2-1 6-5z" fill="#6F672D"/>
<path transform="translate(1716,1521)" d="m0 0m-1 1m-2 1 2 1-13 13h-2l1-3 8-7z" fill="#655E38"/>
<path transform="translate(22,1481)" d="m0 0h10l4 2v2l-15-2z" fill="#1A1913"/>
<path transform="translate(894,1231)" d="m0 0 14 1-4 2-5 1-5-2z" fill="#76C4EF"/>
<path transform="translate(1311,1219)" d="m0 0m-3 1h3v2l-10 4-5-1 4-2z" fill="#4B4844"/>
<path transform="translate(948,1201)" d="m0 0 5 2 2 3-9-1-5 1-2-2z" fill="#3E3C39"/>
<path transform="translate(1025,1168)" d="m0 0h6l9 4v1h-7l-2-2-8-1z" fill="#353432"/>
<path transform="translate(1063,1164)" d="m0 0 7 1 7 4 1 2-2 2-6-5-7-3z" fill="#4B4844"/>
<path transform="translate(1067,762)" d="m0 0h15v2l-14 1z" fill="#69623B"/>
<path transform="translate(1034,1752)" d="m0 0 5 5 3 2v2h-5l-3-2z" fill="#1D120D"/>
<path transform="translate(1446,1712)" d="m0 0h5l-3 3-6 3-4-1h2v-2z" fill="#382F1E"/>
<path transform="translate(2037,1603)" d="m0 0 6 2 5 2v1l-10 1v-3l-2-1z" fill="#706630"/>
<path transform="translate(1561,1564)" d="m0 0 2 4 7 4-4 1-6-3-1-3z" fill="#71692B"/>
<path transform="translate(102,1540)" d="m0 0 6 2 3 2v2h2l-1 3-4 1-1-5z" fill="#887E3F"/>
<path transform="translate(1775,1468)" d="m0 0 2 3v10h-2l-1-3v-9z" fill="#18110D"/>
<path transform="translate(901,1237)" d="m0 0h9l-2 4-7-1z" fill="#1B1C1C"/>
<path transform="translate(1219,1145)" d="m0 0h6l3 2v3l-5-1-5-2z" fill="#41403C"/>
<path transform="translate(1011,1732)" d="m0 0h1l-1 21h-1l-1-19z" fill="#4C421F"/>
<path transform="translate(1340,1679)" d="m0 0 2 1-2 4-10 5-5 1 1-2 10-4z" fill="#6C6430"/>
<path transform="translate(1562,1645)" d="m0 0 2 1-5 4-5 5-5 1 5-4 5-5z" fill="#595337"/>
<path transform="translate(879,1612)" d="m0 0h7l5 1v2h-11z" fill="#24231A"/>
<path transform="translate(1540,1581)" d="m0 0h5l4 5-1 4-3-5-6-2z" fill="#756B28"/>
<path transform="translate(710,1552)" d="m0 0 5 1 6 3-1 3-9-3 1-2z" fill="#60562C"/>
<path transform="translate(1713,1542)" d="m0 0 3 1v2l3 1 1 3 3 1-1 4-9-9z" fill="#302721"/>
<path transform="translate(2008,1504)" d="m0 0 2 1-5 5-9 4-2-1 10-6z" fill="#5F5831"/>
<path transform="translate(2030,1486)" d="m0 0h8l-2 1v2l-3 2 2 2-6 3 1-4 3-4z" fill="#6B6134"/>
<path transform="translate(272,1452)" d="m0 0h2v11l-3 3v-13z" fill="#857B3C"/>
<path transform="translate(299,1430)" d="m0 0h2v2l-8 7-4 1 6-8z" fill="#362A1C"/>
<path transform="translate(316,1414)" d="m0 0 3 1-1 3-5 4-3-1 2-4z" fill="#2A2519"/>
<path transform="translate(1e3 1271)" d="m0 0h4v2l5 2 2 3-6-1-5-5z" fill="#1B1D1C"/>
<path transform="translate(1013,1722)" d="m0 0 1 3-3 8-2-2 2-7z" fill="#302413"/>
<path transform="translate(538,1669)" d="m0 0h5l6 4 1 3-6-2-6-4z" fill="#2B2922"/>
<path transform="translate(1536,1662)" d="m0 0h4v2l-6 4h-3l1-4z" fill="#3B3222"/>
<path transform="translate(1450,1657)" d="m0 0h2l1 6-5 3-4-1 3-1 1-2h2z" fill="#72692A"/>
<path transform="translate(54,1612)" d="m0 0h10v3h-7l-5-1z" fill="#2B241B"/>
<path transform="translate(58,1577)" d="m0 0 2 1 1 2-8 4h-2l-1-3z" fill="#433C2D"/>
<path transform="translate(1712,1406)" d="m0 0 5 2 5 4v3l-4-2-6-5z" fill="#30261A"/>
<path transform="translate(1702,1396)" d="m0 0 7 6 4 4h-3l-9-7z" fill="#423B2A"/>
<path transform="translate(363,1376)" d="m0 0 1 3-6 6-3-1 6-7z" fill="#30291A"/>
<path transform="translate(1111,1259)" d="m0 0 3 1v2l-12 4-4-1 7-3 5-1z" fill="#4EA2D2"/>
<path transform="translate(1164,1171)" d="m0 0h9v3h-11l2-1z" fill="#252625"/>
<path transform="translate(1264,1720)" d="m0 0h2l-2 6-5 5-1-3h3l1-6z" fill="#3F301C"/>
<path transform="translate(878,1693)" d="m0 0 4 1 6 2v1h-9l-4 1 2-4z" fill="#473D1D"/>
<path transform="translate(1425,1643)" d="m0 0 4 1 2 5v4h-2l-2-7-4 1z" fill="#696134"/>
<path transform="translate(645,1632)" d="m0 0 2 1-5 10h-2l1-4z" fill="#1F130D"/>
<path transform="translate(1772,1601)" d="m0 0 11 3-3 3-9-3z" fill="#463E2A"/>
<path transform="translate(280,1583)" d="m0 0h1l1 11-1 4-3-1 1-13z" fill="#141210"/>
<path transform="translate(1388,1539)" d="m0 0 3 1-1 3-10 2v-2z" fill="#221F18"/>
<path transform="translate(348,1522)" d="m0 0 8 6 2 3-10-4z" fill="#7B7127"/>
<path transform="translate(1694,1389)" d="m0 0 4 2 4 4v3l-4-2-3-3z" fill="#2C2817"/>
<path transform="translate(1293,1225)" d="m0 0h6l-1 2-6 2h-6l1-2z" fill="#2B2C2A"/>
<path transform="translate(1324,1213)" d="m0 0m-1 1 1 2-11 5-2-1 8-5z" fill="#524F4A"/>
<path transform="translate(863,1098)" d="m0 0m-2 1h2v2l-13 5-2-1 6-4z" fill="#4EA2D2"/>
<path transform="translate(1338,1673)" d="m0 0 2 2 1 4-5 6-4 1 5-5v-7z" fill="#1F130D"/>
<path transform="translate(514,1653)" d="m0 0 5 1 6 4-1 2-5-2-5-3z" fill="#544F3B"/>
<path transform="translate(1658,1574)" d="m0 0 2 1-10 9-2-1 5-6z" fill="#595443"/>
<path transform="translate(1731,1558)" d="m0 0 2 1v2h2l3 4-1 2h-3l-2-3 1-1-2-1z" fill="#524F4A"/>
<path transform="translate(586,1474)" d="m0 0 6 4-1 4-4-2-4-4h3z" fill="#685B31"/>
<path transform="translate(961,1222)" d="m0 0 4 1 8 3v2l-6-1-8-3z" fill="#42403C"/>
<path transform="translate(874,1206)" d="m0 0 3 1-13 5-2-1 5-3z" fill="#516168"/>
<path transform="translate(1156,1172)" d="m0 0h8l2 3-9 1z" fill="#524F4A"/>
<path transform="translate(1317,1112)" d="m0 0 2 1-2 3-5 2-2 3-4-1 5-5 5-2z" fill="#506D7C"/>
<path transform="translate(1108,763)" d="m0 0 2 1-1 4-11-2 3-2 7 1z" fill="#FBEA6A"/>
<path transform="translate(989,763)" d="m0 0h9l1 2-5 1h-7z" fill="#90842E"/>
<path transform="translate(1099,762)" d="m0 0h7l2 1v2h-15v-1h6z" fill="#A89828"/>
<path transform="translate(942,606)" d="m0 0h11l10 1-1 2-20-2z" fill="#FEFEFE"/>
<path transform="translate(829,1787)" d="m0 0 12 2-1 3-11-3z" fill="#3B3526"/>
<path transform="translate(1222,1696)" d="m0 0 1 2-1 10-3-4-1-4 3-1z" fill="#1F130D"/>
<path transform="translate(263,1601)" d="m0 0 8 1-3 2h-13l4-2z" fill="#5F593D"/>
<path transform="translate(638,1599)" d="m0 0 5 5v6l-4-5-2-5z" fill="#1F130D"/>
<path transform="translate(1988,1580)" d="m0 0 5 1 5 2v2l-7-1-3-2z" fill="#3A331D"/>
<path transform="translate(1736,1566)" d="m0 0 5 3 3 4v2l-4-2-4-4z" fill="#4A4540"/>
<path transform="translate(382,1554)" d="m0 0 4 2 7 6v2l-4-2-7-7z" fill="#64582E"/>
<path transform="translate(1567,1547)" d="m0 0m-1 1m-1 1m-1 1v3l-5 5-3 1 2-4z" fill="#6D652F"/>
<path transform="translate(1972,1492)" d="m0 0h5l-4 4h-7v-2z" fill="#545147"/>
<path transform="translate(1537,1439)" d="m0 0h3l-1 3-6 5-2-1 4-6z" fill="#413823"/>
<path transform="translate(1612,1368)" d="m0 0 3 1-7 7-2-2 5-5z" fill="#61573E"/>
<path transform="translate(456,1352)" d="m0 0 4 5 2 4-3 1-4-7z" fill="#52483B"/>
<path transform="translate(428,1321)" d="m0 0 4 1 1 5-4-3-4 3-1-3z" fill="#332D1F"/>
<path transform="translate(1191,1281)" d="m0 0 4 1-6 5h-4v-2l3-1z" fill="#31312E"/>
<path transform="translate(904,1233)" d="m0 0h4v2l2 2-12-1-3-2h8z" fill="#4EA2D2"/>
<path transform="translate(1080,948)" d="m0 0h2l3 3 4 2h-10l-1-2z" fill="#1C120D"/>
<path transform="translate(1051,497)" d="m0 0h2v12h-2z" fill="#FBEA69"/>
<path transform="translate(1089,490)" d="m0 0 1 3-3 5-1-4z" fill="#FEFEFE"/>
<path transform="translate(966,545)" d="m0 0h7l6 2-3 1-10-2z" fill="#FEFEFE"/>
<path transform="translate(915,632)" d="m0 0 6 1 2 2-7-1z" fill="#FEFEFE"/>
<path transform="translate(916,601)" d="m0 0h6l-1 2-5-1z" fill="#FEFEFE"/>
<path transform="translate(980,590)" d="m0 0h2l-1 3z" fill="#FEFEFE"/>
<path transform="translate(1163,567)" d="m0 0 2 1h-3z" fill="#FEFEFE"/>
<path transform="translate(923,635)" d="m0 0 3 1z" fill="#FEFEFE"/>
<path transform="translate(980,548)" d="m0 0h2l-1 2z" fill="#FEFEFE"/>
<path transform="translate(971,608)" d="m0 0 2 1z" fill="#FEFEFE"/>
<path transform="translate(938,605)" d="m0 0 2 1z" fill="#FEFEFE"/>
<path transform="translate(974,578)" d="m0 0" fill="#FEFEFE"/>
<path transform="translate(1202,643)" d="m0 0" fill="#FEFEFE"/>
<path transform="translate(984,558)" d="m0 0" fill="#FEFEFE"/>
</svg>
